<svg viewBox="0 0 332 407" version="1.1" xmlns="http://www.w3.org/2000/svg" xmlns:xlink="http://www.w3.org/1999/xlink" style="fill-rule:evenodd;clip-rule:evenodd;stroke-linejoin:round;stroke-miterlimit:2;"><g transform="matrix(1,0,0,1,-402.885183,-34.531329)"><g><g><g><g><g><path d="M564,133L564.29,133.29C579.13,137.16 591.89,145.83 600.75,154.37C612.6,165.81 623.06,180.53 629.59,197.01C646.68,240.11 657.7,325.58 632.4,368.93L626.51,375.02C625.06,375.68 621.02,378.85 619.91,379C581.51,384.21 558.4,387.87 522.75,375.95C502.11,369.04 486.1,352.31 483.51,327.25C489.15,320.91 481.86,320.24 481.59,319.05C480.47,313.95 480.5,306.62 479.96,300.78L479.48,298.27C473.64,305.26 467.97,314.75 463.6,322.25C461.62,325.64 458.79,331.6 459.98,336.25L459.5,338.25C458.72,342.81 461.87,346.85 462.94,350.25L464.86,356.75L464.88,360.97C464.49,363.01 463.47,366.2 461.93,367.5C458.66,366.67 458.56,369.54 455.38,369.17C450.88,368.32 448.86,363.6 446.35,360.47C444.57,359.95 443.84,369.56 443.39,371.55C441.74,379.54 439.78,392.39 428.91,383.94C425.21,378.65 424.56,367.83 424.25,359.33L423,358.92L423,373.32C423,377.86 425.51,381.55 427.25,384.59C418.3,390.25 413.67,377.37 412.21,371.63C412.13,370.07 413.53,361.62 411.38,361C409.04,360.32 409.99,369.74 409.12,371.25C402.95,368.31 402.07,350.87 403.45,342.75C408.78,311.46 423.19,288.46 440.44,269.25C444.31,264.94 451.71,260.94 455.44,256C465.78,254.75 466.69,247.1 475.65,256.25C475.86,256.47 476.86,260.74 478.17,259.19C479.12,258.07 478.13,229.98 478.43,224.82C478.54,222.97 482.2,222.2 481.5,217C481.37,216.03 478.67,212.78 478.76,212.09C482.48,184.41 489.8,160.52 506.75,146.89C510.02,148.65 515.45,149.68 521,149C529.59,147.95 532.14,139.12 538.6,152.01C539.47,153.75 538.49,159.99 541.87,159.05C544.75,154.53 548.5,150.54 548.5,143C552.77,143.42 555.12,146.02 557.54,148.14C558.56,149.03 559.43,153.93 562.25,152.25C563.79,151.33 563.26,141.65 563.5,139.25L563,138L562.56,137.25L562.3,132.88L563.56,133L564,133Z" style="fill:rgb(216,29,23);fill-rule:nonzero;"/><g><path d="M583.25,236.89L582.74,237.26L579.26,239.74L579.08,239.92L577.19,241.01C573.12,242.9 567.54,245.08 562.75,245.7C561.78,245.03 558.55,242.67 557.69,242.61C555.99,242.5 549.75,242.41 547.69,242.5C547.3,242.52 545.99,243.94 545.75,243.97C545.3,244.02 542.82,243.71 542.83,245.19C522.15,240.54 507.03,218.3 515.5,192.28C520.17,175.43 540.87,158.93 564.74,164.02C599.1,171.36 611.19,214 583.25,236.89Z" style="fill:rgb(254,254,254);fill-rule:nonzero;"/><g><path d="M554,182.86L558.75,182.8C581.72,185.52 586.79,213.64 569.69,225.77C562.39,230.95 549.23,230.62 542.49,225.34C526.4,212.72 532.84,185.07 554,182.86Z" style="fill:rgb(154,44,29);fill-rule:nonzero;"/><g><path d="M545.89,203.62C551.51,204.42 553.67,199.6 552.71,195.57C568.03,189.81 574.42,213.41 559.25,216.99C550.46,218.92 544.62,212.51 545.89,203.62Z" style="fill:rgb(69,20,15);fill-rule:nonzero;"/><path d="M552.71,195.57C553.67,199.6 551.51,204.42 545.89,203.62C541.24,201.79 540.89,196.03 544.76,193.27C548.23,190.8 550.35,194.34 552.71,195.57Z" style="fill:rgb(253,247,246);fill-rule:nonzero;"/></g></g><g><path d="M515.5,192.28C507.03,218.3 522.15,240.54 542.83,245.19C547.63,246.82 557.3,246.82 562.75,245.7C567.54,245.08 573.12,242.9 577.19,241.01C577.12,244.94 573.26,247.05 570.25,248.01C536.31,258.76 507.14,241.03 509,205.12C509.2,201.27 511.38,192.25 515.5,192.28Z" style="fill:rgb(187,30,25);fill-rule:nonzero;"/><path d="M562.75,245.7C557.3,246.82 547.63,246.82 542.83,245.19C542.82,243.71 545.3,244.02 545.75,243.97C545.99,243.94 547.3,242.52 547.69,242.5C549.75,242.41 555.99,242.5 557.69,242.61C558.55,242.67 561.78,245.03 562.75,245.7Z" style="fill:rgb(253,247,246);fill-rule:nonzero;"/></g></g><g><path d="M589.52,320.25C590.37,326.15 594.63,329.73 597.75,333.62C598.14,334.11 603.33,336.43 601.06,337.93C598.14,339.86 586.81,336.69 583.64,337L582.75,345.25C580.74,347.26 567.63,339.43 564.75,339.51C562.6,339.58 552.93,348.29 548.25,346.25L547.75,337.25C523.04,337.31 537.07,334.68 539.91,321.5L542.09,321.5L541.37,331C546.29,332.64 552.92,322.05 553.96,322.26C556.71,322.81 554.18,338.45 557.84,335.05C560.63,332.46 563.1,329.14 565.46,326.25C566.92,326.93 575.53,340.88 576.5,333.89C576.72,332.3 576.01,324.14 576.5,323.06C577.37,321.12 583.1,327.99 584.25,328.85C586.8,330.76 590.27,331.72 588.34,327.22C589.8,325.65 587.96,323.33 587.84,321.31C587.82,320.98 589.04,320.54 589.52,320.25Z" style="fill:rgb(187,30,25);fill-rule:nonzero;"/><g><path d="M589.02,318.47L589.52,320.25C589.04,320.54 587.82,320.98 587.84,321.31C587.96,323.33 589.8,325.65 588.34,327.22C586.93,326.02 586.39,320.22 586.75,318.51L589.02,318.47Z" style="fill:rgb(215,78,71);fill-rule:nonzero;"/><path d="M586.75,318.51C586.85,314.8 590.76,312.71 589.02,318.47L586.75,318.51Z" style="fill:rgb(236,102,100);fill-rule:nonzero;"/></g><path d="M539.91,321.5C539.33,314.16 542.67,314.12 542.09,321.5L539.91,321.5Z" style="fill:rgb(215,78,71);fill-rule:nonzero;"/></g><g><path d="M601.6,244.31C602.12,242.13 608.77,242.82 608.55,245.28C608.54,250.09 606.94,253.38 606.28,257.75C603.3,264.51 596.91,272.93 590.25,276.55C587.15,276.69 584.83,273.96 583.25,273.56C578.6,272.39 572.07,270.45 567,271.35C567.92,265.67 564.19,262.6 562.48,259.01L560,259.01L560.01,258.56C569.07,257.93 577.09,254.95 583.75,252.12L585.97,251.98L586.36,253.15L587.47,255.53C592.49,264.16 604.3,262.91 603.54,249.99C603.37,247.91 602.83,245.12 601.6,244.31Z" style="fill:rgb(109,24,19);fill-rule:nonzero;"/><g><path d="M567,271.35C572.07,270.45 578.6,272.39 583.25,273.56C584.83,273.96 587.15,276.69 590.25,276.55C579.74,285.91 550.16,289.36 536.75,280.21C540.91,277.24 546.64,275.28 551.45,273.55C556.1,272.49 561.76,271.77 567,271.35Z" style="fill:rgb(215,78,71);fill-rule:nonzero;"/><g><path d="M525.52,258.49C525.22,273.93 541.88,277.1 542.51,259.92L539.25,259.68L546.75,259.61L550.33,260.03C549.9,272.09 549.98,273.02 551.45,273.55C546.64,275.28 540.91,277.24 536.75,280.21C529.69,276.05 523.15,269.4 519,261.75C516.97,258.61 523.66,255.49 525.52,258.49Z" style="fill:rgb(109,24,19);fill-rule:nonzero;"/><g><path d="M560,259.01L562.48,259.01C564.19,262.6 567.92,265.67 567,271.35C561.76,271.77 556.1,272.49 551.45,273.55C549.98,273.02 549.9,272.09 550.33,260.03L552.01,260.08L560,259.01Z" style="fill:rgb(69,20,15);fill-rule:nonzero;"/><g><path d="M560.01,258.56L560,259.01L552.01,260.08L552.01,259.51C553.34,258.09 557.44,258.5 560.01,258.56Z" style="fill:rgb(187,30,25);fill-rule:nonzero;"/><path d="M552.01,259.51L552.01,260.08L550.33,260.03L546.75,259.61L552.01,259.51Z" style="fill:rgb(215,78,71);fill-rule:nonzero;"/></g></g><path d="M539.25,259.68L542.51,259.92C541.88,277.1 525.22,273.93 525.52,258.49C530.3,258.28 535.19,259.75 539.25,259.68Z" style="fill:rgb(253,247,246);fill-rule:nonzero;"/></g></g><g><path d="M603.54,249.99C604.3,262.91 592.49,264.16 587.47,255.53L600.19,249.99L603.54,249.99Z" style="fill:rgb(253,247,246);fill-rule:nonzero;"/><path d="M601.6,244.31C602.83,245.12 603.37,247.91 603.54,249.99L600.19,249.99L587.47,255.53L586.36,253.15C586.66,252.34 590.09,250.35 601.6,244.31Z" style="fill:rgb(253,233,233);fill-rule:nonzero;"/></g><path d="M606.28,257.75C606.94,253.38 608.54,250.09 608.55,245.28C608.49,245.61 609.69,245.98 609.69,245.98C608.91,250.02 608.91,255.32 606.28,257.75Z" style="fill:rgb(187,30,25);fill-rule:nonzero;"/></g><path d="M492.5,233.07C492.19,234.83 488.55,239.87 484.93,238.5C479.84,236.57 479.81,225.05 483.58,221.44C489.63,215.73 493.94,224.86 492.5,233.07Z" style="fill:rgb(187,30,25);fill-rule:nonzero;"/><path d="M497.98,181.5C502.64,181.5 502.96,193.96 498.42,198.5C494.65,202.28 490.85,199.8 491.27,193.83C491.8,186.23 494.38,181.5 497.98,181.5Z" style="fill:rgb(187,30,25);fill-rule:nonzero;"/><path d="M584.75,293.08C591.2,291.47 581.97,298.78 580.55,299.35C573.36,302.27 566.49,303.98 557.25,302.73C555.98,302.55 549.1,298.83 549.25,298.07C549.76,295.53 553.19,298.52 553.9,298.5C557.34,298.39 562.33,298.94 565.67,298.5C572.05,297.65 579.29,295.3 584.75,293.08Z" style="fill:rgb(187,30,25);fill-rule:nonzero;"/><path d="M436.25,279.5C440.17,277.91 442.88,282.35 441.5,286.68C440.45,289.97 435.87,297.26 430.5,292.8C429.63,286.07 431.52,281.43 436.25,279.5Z" style="fill:rgb(187,30,25);fill-rule:nonzero;"/><path d="M488.83,324.5C493.1,327.61 492.09,336.14 487.65,334.5C484.7,333.41 485.67,322.2 488.83,324.5Z" style="fill:rgb(187,30,25);fill-rule:nonzero;"/><path d="M491.7,240C496,237.92 497.1,245.61 494.38,246.5C490.49,247.76 489.17,241.23 491.7,240Z" style="fill:rgb(187,30,25);fill-rule:nonzero;"/><g><path d="M479.96,300.78C480.5,306.62 480.47,313.95 481.59,319.05C481.86,320.24 489.15,320.91 483.51,327.25C486.1,352.31 502.11,369.04 522.75,375.95C558.4,387.87 581.51,384.21 619.91,379C621.02,378.85 625.06,375.68 626.51,375.02C627.49,375.41 628.97,374.28 633.1,370.01C634.45,369.42 634.53,369.71 634.19,373.79L632.25,373.79C630.25,375.92 628.21,380.06 626.75,381.25C617.54,388.78 608.83,396.61 596.25,400.57C596.77,399.84 600.18,396.31 600.18,396.31C599.94,394.25 600.61,389.93 598.97,389.42L586.24,393.08C585.71,393.22 585.43,394.36 585.43,394.36L576.67,395.61C556.64,397.07 553.3,397.11 533.55,396.02L525.59,394.5C520.71,392.52 512.7,391.06 508.25,389.56C506,388.81 494.53,383 493.51,383.29C493.37,383.33 492.27,384.41 492.27,384.53C492.27,386.69 502.16,393.13 504.05,394.26C509.31,397.4 515.13,401.01 522.51,402.13C524.11,402.37 526.8,403.47 529.56,402.96C528.46,408.61 529.93,414.7 530.75,420.02C533.37,431.67 524.55,435.06 515,436.22C515.17,432.9 521.29,428.7 521.5,425.9C521.97,419.68 520.15,405.51 517.49,402.51C515.02,399.74 506.47,399.25 502.88,397.59C500.52,396.5 495.66,394.12 492.94,392.49C484.79,387.61 479.11,379.82 472.27,373.5C472.21,373.45 468.6,372.94 469.42,374.75L467.57,360.99C467.35,359.13 467.88,356 466.49,355.25L464.72,349.15L461.99,335L461.95,333.25L461.95,328.65C467.46,319.15 472.52,308.22 479.96,300.78Z" style="fill:rgb(187,30,25);fill-rule:nonzero;"/><g><g><path d="M515,436.22C512.27,436.55 507.29,437.61 503.53,437.59C504.95,420.07 494.83,417.59 488.53,429.75C487.41,431.91 487.4,436.54 486.12,438.11L484.25,438.1C482.04,438.26 483.36,437.01 483,435.88C484.2,430.65 481.28,418.04 475.7,421C470.69,423.66 469.69,425.93 467.09,430.54C466.39,431.77 466.56,435.7 465.07,436.01L463.25,436C464.92,431.82 465.35,422.65 462.25,420.25C461.72,419.35 458.86,419.76 458.84,417.84C462.27,413.55 467.19,408.77 474.03,407.5C474.1,397.36 470.1,385.07 469.42,374.75C468.6,372.94 472.21,373.45 472.27,373.5C479.11,379.82 484.79,387.61 492.94,392.49C495.66,394.12 500.52,396.5 502.88,397.59C506.47,399.25 515.02,399.74 517.49,402.51C520.15,405.51 521.97,419.68 521.5,425.9C521.29,428.7 515.17,432.9 515,436.22Z" style="fill:rgb(216,29,23);fill-rule:nonzero;"/><g><path d="M483,435.88C482.64,436.48 480.95,436.84 481.5,438.51C476.5,438.45 465.32,443.35 465.07,436.01C466.56,435.7 466.39,431.77 467.09,430.54C469.69,425.93 470.69,423.66 475.7,421C481.28,418.04 484.2,430.65 483,435.88Z" style="fill:rgb(252,225,180);fill-rule:nonzero;"/><path d="M483,435.88C483.36,437.01 482.04,438.26 484.25,438.1L481.5,438.51C480.95,436.84 482.64,436.48 483,435.88Z" style="fill:rgb(187,30,25);fill-rule:nonzero;"/></g><path d="M503.53,437.59C499,438.29 488.42,444.28 486.12,438.11C487.4,436.54 487.41,431.91 488.53,429.75C494.83,417.59 504.95,420.07 503.53,437.59Z" style="fill:rgb(252,225,180);fill-rule:nonzero;"/><path d="M458.84,417.84C458.86,419.76 461.72,419.35 462.25,420.25C465.35,422.65 464.92,431.82 463.25,436C458.81,435.18 452.24,437.69 448.37,436.39C448.21,431.54 450.51,427.15 452.09,424.13C454.15,421.83 455.67,420.41 458.84,417.84Z" style="fill:rgb(252,225,180);fill-rule:nonzero;"/></g><g><g><path d="M592.5,402.56C587.53,407.02 585.34,423.1 590.58,429.01C592.88,431.6 599.34,432.65 600,437.12C589.26,434.49 574.92,436.28 578.14,420.02L579.56,407.25L579.5,403.6L587.98,403.16C589.13,402.8 591.67,401.54 592.5,402.56Z" style="fill:rgb(187,30,25);fill-rule:nonzero;"/><g><path d="M585.43,394.36C585.43,394.36 585.71,393.22 586.24,393.08L598.97,389.42C600.61,389.93 599.94,394.25 600.18,396.31C600.18,396.31 596.77,399.84 596.25,400.57C594.58,400.12 593.86,401.31 593.38,402L592.5,402.56C591.67,401.54 589.13,402.8 587.98,403.16C587.98,401.6 587.54,399.76 587.02,398.07C586.49,396.37 585.91,394.84 585.43,394.36Z" style="fill:rgb(154,44,29);fill-rule:nonzero;"/><path d="M585.43,394.36C585.91,394.84 586.49,396.37 587.02,398.07C587.54,399.76 587.98,401.6 587.98,403.16L579.5,403.6C579.54,400.36 577.37,397.33 576.67,395.61L585.43,394.36Z" style="fill:rgb(109,24,19);fill-rule:nonzero;"/><path d="M596.12,400.5C595.64,401.18 594.93,402.38 593.38,402C593.86,401.31 594.58,400.12 596.12,400.5Z" style="fill:rgb(187,30,25);fill-rule:nonzero;"/></g><path d="M579.56,407.25L578.14,420.02L574.5,420C573.83,413.3 575.57,409.24 579.56,407.25Z" style="fill:rgb(253,247,246);fill-rule:nonzero;"/></g></g></g><g><path d="M570.51,133.61L576,135.39C614.97,149.62 636.33,181.08 647.37,224.15C652.92,218.45 658.65,211.04 662.58,203.25C663.21,202.01 660.88,195.71 659.94,195.01L663.06,195.01L667.09,205.52C662.5,214.22 656.16,222.74 648.33,227.82C649.89,236.91 652.23,246.88 652.99,255.75C654.29,265.39 654.95,277.08 655.8,286.51C655.99,311.96 653.13,337.58 644.51,354.33C641.13,371.51 637.46,390.47 632.5,405.25C639.63,408.43 646.59,412.35 650.75,418.49L648.19,419.8C643.27,413.68 633.51,409.76 625.42,406.59C624.65,403 633.94,380.61 634.19,373.79C634.53,369.71 634.45,369.42 633.1,370.01L632.4,368.93C657.7,325.58 646.68,240.11 629.59,197.01C623.06,180.53 612.6,165.81 600.75,154.37C591.89,145.83 579.13,137.16 564.29,133.29L564,133L562.92,131.97L570.51,133.61Z" style="fill:rgb(236,102,100);fill-rule:nonzero;"/><g><path d="M634.19,373.79C633.94,380.61 624.65,403 625.42,406.59C633.51,409.76 643.27,413.68 648.19,419.8C645.64,422.37 644.96,426.38 646.01,431L644.42,430.97L644.25,430.74C641.69,421.51 631.57,414.93 628.87,429.03C628.46,431.16 629.48,435.78 629.4,437.45L627.21,437.51C625.34,435.1 625.15,430.21 623.48,427.48C616.47,416.07 607.14,424.56 608.99,438.04L600,437.12C599.34,432.65 592.88,431.6 590.58,429.01C585.34,423.1 587.53,407.02 592.5,402.56L593.38,402C594.93,402.38 595.64,401.18 596.12,400.5C608.83,396.61 617.54,388.78 626.75,381.25C628.21,380.06 630.25,375.92 632.25,373.79L634.19,373.79Z" style="fill:rgb(216,29,23);fill-rule:nonzero;"/><path d="M644.25,430.74L644.42,430.97L644.97,433.25L645.91,436C645.97,436.73 644.59,440.02 643.85,440C638.86,440.18 634.03,438.23 629.4,437.45C629.48,435.78 628.46,431.16 628.87,429.03C631.57,414.93 641.69,421.51 644.25,430.74Z" style="fill:rgb(252,225,180);fill-rule:nonzero;"/><path d="M627.21,437.51C624.2,442.41 613.56,438.97 608.99,438.04C607.14,424.56 616.47,416.07 623.48,427.48C625.15,430.21 625.34,435.1 627.21,437.51Z" style="fill:rgb(252,225,180);fill-rule:nonzero;"/><g><path d="M657.45,424.02C658.18,424.6 663.67,435.67 661.35,436.63L646.56,436.02L646.19,432.19L646.01,431C644.96,426.38 645.64,422.37 648.19,419.8L650.75,418.49C652.31,419.77 655.79,422.15 657.45,424.02Z" style="fill:rgb(252,225,180);fill-rule:nonzero;"/><g><path d="M646.56,436.02L645.91,436L644.97,433.25L646.19,432.19L646.56,436.02Z" style="fill:rgb(215,78,71);fill-rule:nonzero;"/><path d="M646.01,431L646.19,432.19L644.97,433.25L644.42,430.97L646.01,431Z" style="fill:rgb(187,30,25);fill-rule:nonzero;"/></g></g></g><path d="M714.54,215C704.67,248.24 687.61,275.23 655.8,286.51C654.95,277.08 654.29,265.39 652.99,255.75C656.03,257.52 658.91,261.08 663.15,261.63C670.42,262.56 683.85,252.57 687.71,248.79C693.63,242.99 699.38,234.61 704.65,226.76C706.81,223.53 707.25,214.12 714.54,215Z" style="fill:rgb(187,30,25);fill-rule:nonzero;"/><path d="M632.4,368.93L633.1,370.01C628.97,374.28 627.49,375.41 626.51,375.02L632.4,368.93Z" style="fill:rgb(215,78,71);fill-rule:nonzero;"/></g><g><path d="M522.51,402.13C515.13,401.01 509.31,397.4 504.05,394.26C502.16,393.13 492.27,386.69 492.27,384.53C492.27,384.41 493.37,383.33 493.51,383.29C494.53,383 506,388.81 508.25,389.56C512.7,391.06 520.71,392.52 525.59,394.5C522.52,395.42 522.5,395.47 522.51,402.13Z" style="fill:rgb(154,44,29);fill-rule:nonzero;"/><path d="M525.59,394.5L533.55,396.02L529.56,402.96C526.8,403.47 524.11,402.37 522.51,402.13C522.5,395.47 522.52,395.42 525.59,394.5Z" style="fill:rgb(109,24,19);fill-rule:nonzero;"/></g><g><path d="M461.95,333.25L460.44,334.89L459.98,336.25C458.79,331.6 461.62,325.64 463.6,322.25C467.97,314.75 473.64,305.26 479.48,298.27L479.96,300.78C472.52,308.22 467.46,319.15 461.95,328.65L461.95,333.25Z" style="fill:rgb(215,78,71);fill-rule:nonzero;"/><g><path d="M461.99,335L464.72,349.15L462.94,350.25C461.87,346.85 458.72,342.81 459.5,338.25L460,336.75L460.44,334.89L461.99,335Z" style="fill:rgb(253,247,246);fill-rule:nonzero;"/><g><path d="M466.49,355.25L464.86,356.75L462.94,350.25L464.72,349.15L466.49,355.25Z" style="fill:rgb(253,233,233);fill-rule:nonzero;"/><path d="M466.49,355.25C467.88,356 467.35,359.13 467.57,360.99L464.88,360.97L464.86,356.75L466.49,355.25Z" style="fill:rgb(253,247,246);fill-rule:nonzero;"/></g><path d="M461.95,333.25L461.99,335L460.44,334.89L461.95,333.25Z" style="fill:rgb(253,227,226);fill-rule:nonzero;"/></g></g></g><g><path d="M502.04,141.55L506.75,146.89C489.8,160.52 482.48,184.41 478.76,212.09C478.67,212.78 481.37,216.03 481.5,217C482.2,222.2 478.54,222.97 478.43,224.82C478.13,229.98 479.12,258.07 478.17,259.19C476.86,260.74 475.86,256.47 475.65,256.25C466.69,247.1 465.78,254.75 455.44,256C457.71,204.83 467.26,160.09 502.04,141.55Z" style="fill:rgb(187,30,25);fill-rule:nonzero;"/><g><path d="M540.91,104.04C545.53,104.15 540.62,109.49 540.93,111.33C537.72,115.72 540.11,115.45 542.58,112.64C544.7,111.81 555.89,106.8 556.64,112.44C554.16,115.35 550.15,117.38 549.38,121.5C560.88,120.55 569.92,123.66 570.51,133.61L562.92,131.97C559.38,131.76 559.29,131.82 560.42,133.74L560.93,134.43L562.56,137.25L563,138L563.5,139.25C563.26,141.65 563.79,151.33 562.25,152.25C559.43,153.93 558.56,149.03 557.54,148.14C555.12,146.02 552.77,143.42 548.5,143C548.5,150.54 544.75,154.53 541.87,159.05C538.49,159.99 539.47,153.75 538.6,152.01C532.14,139.12 529.59,147.95 521,149C515.45,149.68 510.02,148.65 506.75,146.89L502.04,141.55C500.07,132.54 507.74,127.85 512.99,124.56L517.64,122.58C519.72,121.55 525.25,120.41 527.06,118.88C529.29,116.98 532.75,111.15 534.27,109.25L537.25,106.4L540.91,104.04Z" style="fill:rgb(64,52,82);fill-rule:nonzero;"/><path d="M541.48,120.5C541.29,127.82 546.84,125.26 547.75,126.25C547.69,126.96 553.13,134.51 553.12,134.55C552.83,135.4 546.26,132.9 545.75,133.75C546.75,145.9 538.33,136.88 530.75,138.04C524.75,138.96 513.54,147.22 507.57,142.58C507.12,142.23 505.46,138.67 506,137.32C510.73,125.44 525.64,121.85 541.48,120.5Z" style="fill:rgb(96,82,113);fill-rule:nonzero;"/><g><path d="M615.46,66.58C614.35,69.31 617.73,67.93 618.62,68.46C618.62,68.46 618.15,70.61 618.97,70.25C619.41,77.13 617.21,86.04 614.75,89.92C611.82,89.51 608.2,91.61 607.13,89.47C619.47,66.76 602.07,41.89 578.25,42.87C554.41,43.85 539.53,70.11 552.07,92.39C549.86,95.06 544.47,95.22 541.49,97.05C539.97,97.99 536.91,101.21 535.95,102.26C535.59,102.65 535.65,106.26 535.41,107.04L534.27,109.25C532.75,111.15 529.29,116.98 527.06,118.88C525.25,120.41 519.72,121.55 517.64,122.58C517.64,122.58 516.34,122.3 516.25,122.12C515.47,120.56 527.15,101.98 529.13,99.25C531.83,95.51 538.17,90.95 541.7,87.07C541.98,80.42 544.02,72.01 545.89,67.17C559.11,32.97 603.89,28.95 615.46,66.58Z" style="fill:rgb(216,29,23);fill-rule:nonzero;"/><g><path d="M615.46,66.58C603.89,28.95 559.11,32.97 545.89,67.17C544.02,72.01 541.98,80.42 541.7,87.07C538.17,90.95 531.83,95.51 529.13,99.25C527.15,101.98 515.47,120.56 516.25,122.12C516.34,122.3 517.64,122.58 517.64,122.58L512.99,124.56C516.74,105.48 528.21,93.35 539.73,81.9C535.42,31.16 608.03,14.25 618.49,65.91L615.46,66.58Z" style="fill:rgb(236,102,100);fill-rule:nonzero;"/><path d="M618.49,65.91L618.97,70.25C618.15,70.61 618.62,68.46 618.62,68.46C617.73,67.93 614.35,69.31 615.46,66.58L618.49,65.91Z" style="fill:rgb(215,78,71);fill-rule:nonzero;"/></g><path d="M537.25,106.4L534.27,109.25L535.41,107.04L537.25,106.4Z" style="fill:rgb(96,82,113);fill-rule:nonzero;"/></g><path d="M556.42,112.86C558.13,114.13 555.52,115.67 555.5,116.46C555.37,122.81 562.16,120.07 565.58,122.5C569.68,125.41 572.57,129.68 576,133.49C576.18,133.69 575.86,135.21 576,135.39L570.51,133.61C569.92,123.66 560.88,120.55 549.38,121.5C550.15,117.38 554.16,115.35 556.42,112.86Z" style="fill:rgb(253,247,246);fill-rule:nonzero;"/><g><path d="M562.92,131.97L563.56,133L562.3,132.88C562.89,131.39 560.59,133.53 560.42,133.74C559.29,131.82 559.38,131.76 562.92,131.97Z" style="fill:rgb(215,78,71);fill-rule:nonzero;"/><path d="M562.3,132.88L562.56,137.25L560.93,134.43L560.5,134C560.59,133.53 562.89,131.39 562.3,132.88Z" style="fill:rgb(187,30,25);fill-rule:nonzero;"/></g></g></g><path d="M455.38,369.17C452.74,370.45 451.53,370.73 451,370.61C450.47,370.49 448.54,370.66 443.39,371.55C443.84,369.56 444.57,359.95 446.35,360.47C448.86,363.6 450.88,368.32 455.38,369.17Z" style="fill:rgb(253,247,246);fill-rule:nonzero;"/><path d="M427.25,384.59C425.51,381.55 423,377.86 423,373.32L423,358.92L424.25,359.33C424.56,367.83 425.21,378.65 428.91,383.94L427.25,384.59Z" style="fill:rgb(187,30,25);fill-rule:nonzero;"/><path d="M412.21,371.63L409.12,371.25C409.99,369.74 409.04,360.32 411.38,361C413.53,361.62 412.13,370.07 412.21,371.63Z" style="fill:rgb(187,30,25);fill-rule:nonzero;"/></g><path d="M684.32,153.49C687.37,152.63 688.93,155.05 690.52,155.49C690.91,155.6 694.31,155.4 694.65,155.49L695.69,159.48C691,159.01 691.49,170.63 689.41,173.75C688.97,175.34 688.81,178.64 692.85,177.02C693.39,176.8 694.32,173.85 694.4,173.75L695.67,172.16L696.53,170.75C698.53,168.28 701.03,164.71 703.02,162.63C704.44,161.16 706.91,158.68 709.48,158.41C712.69,158.64 713.21,162.47 714.97,164C716.73,163.9 718.01,164.88 719.02,165.53C719,168.87 715.16,170.49 713.95,172.33C711.94,175.4 710.12,180.45 708.25,183.25C706.27,186.21 702.22,180.1 701.25,179.56C700.59,179.19 695.48,177.28 695.48,178.57C701.29,181.76 709,192.63 715.32,183.25L717.75,181.66C719.32,181.57 721.74,179.19 723.87,179.45C725.7,183.19 728.45,186.81 730.94,189.75C729.48,196.86 722.6,202.94 716.64,205.98L714.54,215C707.25,214.12 706.81,223.53 704.65,226.76C699.38,234.61 693.63,242.99 687.71,248.79C683.85,252.57 670.42,262.56 663.15,261.63C658.91,261.08 656.03,257.52 652.99,255.75C652.23,246.88 649.89,236.91 648.33,227.82C656.16,222.74 662.5,214.22 667.09,205.52L663.06,195.01L659.94,195.01C657.04,191.16 652.98,185.97 652.91,179.73C653.99,176 657.45,174.38 659.75,171.97C665.69,171.47 669.19,176.23 672.53,179.13C675.49,170.09 678.86,159.52 684.32,153.49Z" style="fill:rgb(216,29,23);fill-rule:nonzero;"/><g><path d="M721.23,166.18C720.36,170.79 718.16,175.96 716.4,179.97C715.79,179.97 714.3,182.66 715.32,183.25C709,192.63 701.29,181.76 695.48,178.57C695.48,177.28 700.59,179.19 701.25,179.56C702.22,180.1 706.27,186.21 708.25,183.25C710.12,180.45 711.94,175.4 713.95,172.33C715.16,170.49 719,168.87 719.02,165.53L721.23,166.18Z" style="fill:rgb(187,30,25);fill-rule:nonzero;"/><path d="M709.48,158.41C711.99,155.66 716.26,152.64 719.64,150.45L721.23,150.76L721.23,166.18L719.02,165.53C718.01,164.88 716.73,163.9 714.97,164C713.21,162.47 712.69,158.64 709.48,158.41Z" style="fill:rgb(252,225,180);fill-rule:nonzero;"/><path d="M716.4,179.97L717.75,181.66L715.32,183.25C714.3,182.66 715.79,179.97 716.4,179.97Z" style="fill:rgb(253,227,226);fill-rule:nonzero;"/></g><g><path d="M695.69,159.48L694.9,169.71L694.3,171.34L694.4,173.75C694.32,173.85 693.39,176.8 692.85,177.02C688.81,178.64 688.97,175.34 689.41,173.75C691.49,170.63 691,159.01 695.69,159.48Z" style="fill:rgb(187,30,25);fill-rule:nonzero;"/><path d="M694.9,169.71L696.53,170.75L695.67,172.16L694.3,171.34L694.9,169.71Z" style="fill:rgb(253,233,233);fill-rule:nonzero;"/><path d="M694.3,171.34L695.67,172.16L694.4,173.75L694.3,171.34Z" style="fill:rgb(253,227,226);fill-rule:nonzero;"/></g><path d="M684.32,153.49C685.02,152.32 691.1,143.99 692.89,145.5C693.65,146.13 694.31,153.88 694.65,155.49C694.31,155.4 690.91,155.6 690.52,155.49C688.93,155.05 687.37,152.63 684.32,153.49Z" style="fill:rgb(252,225,180);fill-rule:nonzero;"/><path d="M659.75,171.97C657.45,174.38 653.99,176 652.91,179.73C651.63,179.11 651.72,168.79 652.62,168C654.41,166.42 659.27,171.31 659.75,171.97Z" style="fill:rgb(252,225,180);fill-rule:nonzero;"/><path d="M584,91.64L580.25,91.69L584,91.64Z" style="fill:rgb(236,102,100);fill-rule:nonzero;"/><path d="M563,138L562.56,137.25L563,138Z" style="fill:rgb(187,30,25);fill-rule:nonzero;"/><path d="M563.5,139.25L563,138L563.5,139.25Z" style="fill:rgb(187,30,25);fill-rule:nonzero;"/><path d="M564.29,133.29L564,133L564.29,133.29Z" style="fill:rgb(187,30,25);fill-rule:nonzero;"/><path d="M560.93,134.43L560.5,134L560.93,134.43Z" style="fill:rgb(215,78,71);fill-rule:nonzero;"/><path d="M607.13,89.47C596.78,108.45 564.49,111.99 552.07,92.39C539.53,70.11 554.41,43.85 578.25,42.87C602.07,41.89 619.47,66.76 607.13,89.47Z" style="fill:rgb(254,254,254);fill-rule:nonzero;"/><path d="M584,91.64L580.25,91.69C572.9,90.59 567.59,85.33 566.5,78.34C564.23,63.84 581.54,55 591.75,62.85C603,71.48 598.43,90.56 584,91.64Z" style="fill:rgb(154,44,29);fill-rule:nonzero;"/><g><path d="M575.5,74.5C578.52,74.41 580.12,72.33 579.46,69.05C587.47,66.96 592.18,74.59 589.03,79.78C585.29,85.93 573.69,84.84 575.5,74.5Z" style="fill:rgb(69,20,15);fill-rule:nonzero;"/><path d="M579.46,69.05C580.12,72.33 578.52,74.41 575.5,74.5C568.28,72.28 575.15,62.72 579.46,69.05Z" style="fill:rgb(253,233,233);fill-rule:nonzero;"/></g><path d="M614.75,89.92C607.69,107.34 580.38,120.23 558.41,107.76C557.99,107 554.69,105.3 554.1,104.85C548.06,100.17 548.26,95.35 540.91,104.04L537.25,106.4L535.41,107.04C535.65,106.26 535.59,102.65 535.95,102.26C536.91,101.21 539.97,97.99 541.49,97.05C544.47,95.22 549.86,95.06 552.07,92.39C564.49,111.99 596.78,108.45 607.13,89.47C608.2,91.61 611.82,89.51 614.75,89.92Z" style="fill:rgb(187,30,25);fill-rule:nonzero;"/><path d="M540.91,104.04C548.26,95.35 548.06,100.17 554.1,104.85C554.69,105.3 557.99,107 558.41,107.76L556.64,112.44C555.89,106.8 544.7,111.81 542.58,112.64L540.93,111.33C540.62,109.49 545.53,104.15 540.91,104.04Z" style="fill:rgb(253,247,246);fill-rule:nonzero;"/><path d="M540.93,111.33L542.58,112.64C540.11,115.45 537.72,115.72 540.93,111.33Z" style="fill:rgb(253,233,233);fill-rule:nonzero;"/></g></g><g><path d="M680.67,183C683.05,182.15 690.61,186.79 691.75,187.79C694.74,190.44 697.65,203.05 692,206C693.31,195.03 687.36,190.65 683.11,186.08C682.7,185.64 678.09,183.92 680.67,183Z" style="fill:rgb(187,30,25);fill-rule:nonzero;"/></g></g><path d="M730.94,189.75C728.45,186.81 725.7,183.19 723.87,179.45C725.72,179.18 733.78,177.24 734.25,177.75C736.4,180.09 731.54,188.08 730.94,189.75Z" style="fill:rgb(252,225,180);fill-rule:nonzero;"/></g></g></svg>
