<svg viewBox="-19.5 -40.0 250 250" version="1.1" xmlns="http://www.w3.org/2000/svg" xmlns:xlink="http://www.w3.org/1999/xlink" style="fill-rule:evenodd;clip-rule:evenodd;stroke-linejoin:round;stroke-miterlimit:2;"><g><g><path d="M38.85,5.05c10.01,-0.54 19.62,-0.15 25.7,5.16c1.57,1.38 4.66,7.73 5.67,8.49l8.49,1.43l1.72,-0.45c12.48,3.03 31.12,5.12 36.51,14.91c7.4,13.42 15.47,39.34 8.6,58.27c-1.08,2.98 -4.76,6.28 -5.71,9.2c-0.59,1.8 0.06,9.82 0.89,10.8c1.72,2.03 1.91,-3.67 2.5,-4c2.22,-1.27 2.23,4.54 3.32,5.93c5.07,6.49 6.99,4.19 10.97,14.46c1.92,4.97 -1.48,4.89 -1.54,5.4c-0.2,1.61 0.08,5.78 -0.02,6.71c-0.33,3.24 -1.75,7.64 -1.98,10.92c-0.6,8.69 2.61,12.94 5.05,18.78c-2.16,-0.76 -2,2.57 -2.68,3.07c-1.86,1.38 -4.8,3.88 -8.34,4.06l-10.39,-2.08c-2.64,1.15 -6.77,6.96 -10.91,5.5c-1.07,-0.38 -2.73,-2.48 -3.71,-3.05c-2.15,-1.26 -5.24,-1.01 -5.57,-4.45c-5.19,1.31 -8.72,5.22 -13.2,7.65c-13.87,7.55 -11.38,-7.64 -14.79,-7.77c0,0 -7.76,4.58 -9.39,5.12c-0.95,0.31 -8.51,1.91 -9.51,1.5c-1.72,-0.71 1.87,-6.17 1.67,-7.47c-0.33,-2.22 -6.4,1.34 -7.98,1.44c-3.52,0.24 -10.22,0.15 -12,-1.57c1.4,-2.06 3.24,-7.18 3.38,-11.32c1.72,0.98 2.7,-3.66 2.43,-4.43c-1.24,-3.54 -8.49,-17.76 -8.5,-20.4l-0.05,-14.5c-0.05,-12.01 0.94,-3.89 -3.53,-11.25c-2.58,-4.24 -6.2,-8.35 -5.48,-16.02l-1.61,-0.62c-0.5,-4.06 4.64,-13.05 2.5,-16.26c-6.14,-2.63 -11.64,-8.09 -11.89,-17.1c2.15,0.06 3.95,2.45 4.83,2.94c1.03,2.3 4.99,5.64 7.42,4.08l3.5,-2.18c-0.01,-2.01 -1.42,-3.98 -1.89,-5.94c3.96,-2.07 4.92,-8.34 7.15,-12.43c-0.97,-2.26 -1.28,-8.17 -2.89,-8.72c-0.98,-3.74 -2.38,-7.82 -2.33,-12.1c0.36,-4.08 2.52,-6.56 2.72,-10.65c2.13,-5.07 7.56,-7.84 12.49,-10.07c0.68,-1.64 -1.04,-0.61 -1.62,-0.99Z" style="fill:#99c44a;fill-rule:nonzero;"/><path d="M51.07,118.18c-0.28,2.16 -6.93,4.75 -9.76,12.99c-0.68,1.99 7.42,10.83 8.56,12.69c6.1,9.94 -0.84,13.17 0.08,15.93c0.58,1.74 12.17,-2.03 13.77,-3.32c4.97,-4 9.36,-11.93 14.7,-16.43c10.13,19 0.83,28.72 18.93,6.32c0.89,-1.1 2,-6.15 4.05,-5.25c1.18,0.52 4.67,7.91 5.16,9.49c0.44,1.41 0.33,12.3 2.34,11.57c2.05,-0.74 9.37,-12.2 10.07,-6.59c-3.55,4.34 -8.67,8.3 -13.8,10.53c1.53,-5.06 -1.21,-18.36 -3.45,-19.74c-2.44,-1.5 -2.34,2.17 -3.26,3.38c-2.23,2.93 -11.12,16.58 -16.52,15.53c-1.14,-0.22 0.93,-7.33 0.52,-9.92c-0.3,-1.9 -2.89,-10.44 -3.74,-10.93c-1.4,-0.8 -7.64,10.29 -9.29,12.17c-4.47,5.09 -5.2,4.41 -13.11,6.01c-1.39,0.28 -9.62,3.01 -10.84,2.71c-2.04,-0.49 2.8,-6.79 3.48,-8.96c3.02,-9.64 -17.95,-19.24 -5.38,-34.32c0.53,-0.62 7.8,-6.13 7.49,-3.86Z" style="fill:#b4d166;fill-rule:nonzero;"/><path d="M51.72,7.62c1.98,0.01 8.07,2.78 4.94,4.66c-3.31,1.99 -7.64,2.71 -10.8,5.58c-2.02,1.85 -5.38,7.87 -7.32,10.03c-9.61,10.7 -17.9,-20.49 13.18,-20.27Z" style="fill:#b4d166;fill-rule:nonzero;"/><path d="M113.06,72.31l-0.13,2.55l-0.39,2c-0.1,2.52 -3.86,7.27 -5.38,8.16c-4.8,2.82 -11.81,-0.93 -13.51,-3.16l-0.87,-0.87l1.24,-1.84c0.45,-0.03 3.42,0.9 4.39,0.5c2.37,-0.98 7.44,-4.92 1.08,-4.8l0.49,-2.74c6.62,1.17 0.66,-5.74 -0.3,-6.25c-2.19,-1.16 -5.25,-0.79 -7.25,0.77c-2.65,-1.03 0.47,-5.02 1.35,-5.02l11.61,0c4.3,1.71 4.27,8.03 7.67,10.7Z" style="fill:#f9fbf7;fill-rule:nonzero;"/><path d="M92.43,66.63c-0.14,0.55 -1.93,2.67 -1.96,3.23c-0.41,7.3 0.68,5.2 3.55,9.29l-1.24,1.84c-0.43,-0.86 -3.36,-4 -3.68,-5.47c-6.06,-27.76 22.9,-24.21 23.96,-3.21c-3.4,-2.67 -3.37,-8.99 -7.67,-10.7l-11.61,0c-0.88,0 -4,3.99 -1.35,5.02Z" style="fill:#e6e6e1;fill-rule:nonzero;"/><path d="M99.98,72.11c0.49,-2.8 -3.59,-5.3 -5.73,-3.75c-0.33,0.24 -2.18,2.76 -2.28,3.4c-0.81,4.95 6.15,7.4 7.52,3.09c6.36,-0.12 1.29,3.82 -1.08,4.8c-0.97,0.4 -3.94,-0.53 -4.39,-0.5c-2.87,-4.09 -3.96,-1.99 -3.55,-9.29c0.03,-0.56 1.82,-2.68 1.96,-3.23c2,-1.56 5.06,-1.93 7.25,-0.77c0.96,0.51 6.92,7.42 0.3,6.25Z" style="fill:#486a86;fill-rule:nonzero;"/><path d="M99.98,72.11l-0.49,2.74c-1.37,4.31 -8.33,1.86 -7.52,-3.09c0.1,-0.64 1.95,-3.16 2.28,-3.4c2.14,-1.55 6.22,0.95 5.73,3.75Z" style="fill:#060c11;fill-rule:nonzero;"/><path d="M68.97,41.51c1.45,-8.19 -3.49,-6.91 -4.75,-8.76c-0.72,-1.05 0.92,-2.93 0.31,-4.1c-0.25,-0.48 -5.5,-1.44 -3.23,-2.79c3.69,-2.2 16.82,0.81 17.67,4.15c1.62,6.39 -1.97,11.66 -5.86,11.99l-4.14,-0.49Z" style="fill:#8abb3a;fill-rule:nonzero;"/><path d="M73.11,42c-3.69,2.41 0.12,8.81 -0.55,12.34c-0.47,2.4 -1.08,5.18 -1.65,7.23c-1.42,0.52 -1.53,4.49 -2.54,5.58c-1.12,1.22 -3.71,3.75 -4.89,4.81c-0.58,0.53 -5.56,3.38 -4.81,1.4c0.42,-0.41 0.38,-3.27 0.22,-4.5c-0.7,0.77 -2.12,2.05 -1.99,3.72l-1.76,2.7c-1.61,-1.47 0.61,-3.8 0.27,-5.69c0.61,-1.46 2.07,-10.27 4.31,-8.23c1.24,1.13 0.09,7.74 2.79,7.85c0,0 5.2,-5.16 5.46,-5.78c3.35,-8.11 1.33,-12.55 1,-21.92l4.14,0.49Z" style="fill:#74a931;fill-rule:nonzero;"/><path d="M70.91,61.57c1.91,-0.26 3.05,1.95 3.49,2.29c-1.64,1.19 -4.69,2.89 -3.93,6.13c-2.81,0.7 -5.76,2.14 -5.5,6.12c-4.1,-1.53 -9.67,4.75 -8,7.97c2.32,4.45 5.39,3.52 7.96,4.87c1.23,0.65 0.76,1.88 2.38,1.91c-6.46,1.75 -12.84,-3.73 -13.71,-8.5c-0.12,-4.17 -0.06,-4.45 1.54,-7.08l1.76,-2.7l1.77,0.78c-0.75,1.98 4.23,-0.87 4.81,-1.4c1.18,-1.06 3.77,-3.59 4.89,-4.81c1.01,-1.09 1.12,-5.06 2.54,-5.58Z" style="fill:#e6e6e1;fill-rule:nonzero;"/><path d="M55.41,69.59c0.34,1.89 -1.88,4.22 -0.27,5.69c-1.6,2.63 -1.66,2.91 -1.54,7.08c-2.34,-0.59 -6.33,1.58 -8.07,1.83c-1.64,0.23 -3.35,-0.66 -2.31,-1.68c1.83,-1.77 5.37,-4.01 6.8,-5.65c1.67,-1.9 2.85,-6.34 5.39,-7.27Z" style="fill:#8abb3a;fill-rule:nonzero;"/><path d="M56.9,72.58c-0.13,-1.67 1.29,-2.95 1.99,-3.72c0.16,1.23 0.2,4.09 -0.22,4.5l-1.77,-0.78Z" style="fill:#e8f1e3;fill-rule:nonzero;"/><path d="M97.48,100.13l-6.03,1.87l-11.46,1.3l-7.02,-0.79l-8.64,-2.61c-1.92,-1.51 -7.2,-3.71 -7.93,-7.29c5.33,3.45 10.66,7.32 18.82,8c2.43,0.2 10.61,0.25 13,-0.03c9.49,-1.11 16.45,-6.26 22.32,-11.12c0.67,-0.56 3.13,-5.43 3.97,-5.85c4.26,-2.13 -0.98,6 -1.67,6.78c-0.95,1.06 -5.65,3.7 -6.12,4.97l-9.24,4.77Z" style="fill:#669c34;fill-rule:nonzero;"/><path d="M91.45,102c2.45,9.7 -12.92,9.26 -11.46,1.3l11.46,-1.3Z" style="fill:#e8f1e3;fill-rule:nonzero;"/><path d="M106.72,95.36c0.67,1.1 0.1,5.86 -0.24,6.56c-1.88,3.91 -9.41,4.13 -9,-1.79l9.24,-4.77Z" style="fill:#e8f1e3;fill-rule:nonzero;"/><path d="M72.97,102.51c-0.14,0.37 0.18,2.92 0,3.15c-4.16,5.32 -9.42,1.56 -8.64,-5.76l8.64,2.61Z" style="fill:#e8f1e3;fill-rule:nonzero;"/><path d="M39.16,52.59c3.26,-0.65 1.98,21.39 2.96,23.55c1.37,3.06 6,-6.1 6.93,-7.09c2.38,-2.55 2.91,2.41 1.82,3.65c-1.36,1.53 -9.78,11.77 -13.43,9.91c-1.8,-0.91 1.5,-3.8 1.54,-4.26c0.34,-3.57 1.03,-8.67 0.97,-12.49c-0.02,-1.39 -3.15,-12.8 -0.79,-13.27Z" style="fill:#8abb3a;fill-rule:nonzero;"/><path d="M98,44.61c1.75,0.25 7.84,4.1 4.59,5.75c-1.03,0.52 -8.45,0 -10.87,-0.35c-2.74,-0.39 -1.7,-6.55 6.28,-5.4Z" style="fill:#669c34;fill-rule:nonzero;"/><path d="M47.97,29.61c-0.28,2.8 -3.65,4.43 -4.44,5.75c-1.62,2.69 -3.06,5.74 -4.7,8.5c-0.27,0.46 -1.43,6.77 -2.61,4.5c-1.24,-2.41 7.24,-18.54 11.75,-18.75Z" style="fill:#b4d166;fill-rule:nonzero;"/><path d="M149.22,12.44c6.54,8.05 -0.13,21.88 -1.25,30.5c-0.65,-0.27 -1.84,-0.34 -1.51,1.66c-0.73,1.51 -5.77,9.2 -4.02,10.01c4.07,0.6 6.36,-0.88 8.54,-2.13c3.45,3.83 6.04,-1.48 8.99,-1.87c-0.17,10.86 -5.65,17.69 -15,19.13c1.39,7.88 4.52,15.84 7.54,22.62l3.83,12.47c2.48,2.52 17.59,-5.33 16.6,-10.47c6.87,0.18 10.26,-6.42 16.78,-7.18c-4.71,6.87 -12.18,12.45 -19.19,16.92c-23.31,14.87 -19.76,-1.43 -12.56,25.67c1.98,7.45 -3.41,5.41 -3.14,8.98c1.04,14.08 -0.02,15.62 6.89,24.55c0.6,0.78 7.23,3.09 5.25,5.02c-4.13,4.03 -10.68,11.39 -19.25,9.51c-0.69,-2.29 -2.89,-3.47 -5.21,-3.74l-3.49,-3.03c-2.44,-5.84 -5.65,-10.09 -5.05,-18.78c0.23,-3.28 1.65,-7.68 1.98,-10.92c0.1,-0.93 -0.18,-5.1 0.02,-6.71c0.06,-0.51 3.46,-0.43 1.54,-5.4c-3.98,-10.27 -5.9,-7.97 -10.97,-14.46c-1.09,-1.39 -1.1,-7.2 -3.32,-5.93c-0.59,0.33 -0.78,6.03 -2.5,4c-0.83,-0.98 -1.48,-9 -0.89,-10.8c0.95,-2.92 4.63,-6.22 5.71,-9.2c6.87,-18.93 -1.2,-44.85 -8.6,-58.27c-5.39,-9.79 -24.03,-11.88 -36.51,-14.91l0.54,-0.57l0.56,-0.56c3.64,-2.54 11.82,-7.23 17.39,-3.48c1.33,1.25 4.04,3.88 6.3,4.12c1.31,0.14 6.24,-1.47 7.72,-1.2c8.09,1.48 12.43,3.95 17.57,8.28c2.73,2.29 9.13,16.55 10.04,3.34c0.03,-0.09 1,0.08 1.03,0c1.8,-4.68 5.41,-9.22 5.05,-16.67l2.59,-0.5Z" style="fill:#8abb3a;fill-rule:nonzero;"/><path d="M204.17,56.67l1.3,-0.17l1.49,-0.06c7.48,2.55 -0.41,10.32 -4.92,10.23c-3.6,6.76 -7.45,15.56 -12.32,20.51c-6.52,0.76 -9.91,7.36 -16.78,7.18c0.99,5.14 -14.12,12.99 -16.6,10.47l-3.83,-12.47c12.07,-6.25 13.24,-23.38 20.15,-34.92c-1.21,-3.68 -6.03,-7.45 -4.27,-12.93c1.83,-5.71 11.89,-0.91 10.69,4.6c4.32,-0.63 4.11,-8.38 6.01,-12.01c2.43,-4.63 10.83,-3.76 9.88,3.41c-0.31,2.37 -5.89,8.64 -0.87,9.04c6.64,-11.64 20.63,-7.15 8.84,5.64c-3.78,1.74 -2.06,4.32 1.23,1.48Z" style="fill:#99c44a;fill-rule:nonzero;"/><path d="M202.94,55.19l1.23,1.48c-3.29,2.84 -5.01,0.26 -1.23,-1.48Z" style="fill:#e8f1e3;fill-rule:nonzero;"/><path d="M124.75,0.13c0.29,1.93 3.54,2.68 5.1,3l6.41,5.26l5.32,10.71c0.01,3.56 -0.38,7.88 -1.03,10.51c-0.91,13.21 -7.31,-1.05 -10.04,-3.34c-5.14,-4.33 -9.48,-6.8 -17.57,-8.28c-1.48,-0.27 -6.41,1.34 -7.72,1.2c-2.26,-0.24 -4.97,-2.87 -6.3,-4.12c2.11,-2.93 3.34,-7.2 6.8,-9.03c4.46,-2.35 12.96,-4.98 19.03,-5.91Z" style="fill:#99c44a;fill-rule:nonzero;"/><path d="M120.58,4.13c9.93,-0.06 14.21,4.04 14.35,13.74c0.1,6.8 -5.24,6.63 -10.46,-0.34c-3.28,-4.37 -5.77,-5.83 -10.84,-6.33c-7.92,-0.79 -1.8,-7.01 6.95,-7.07Z" style="fill:#b4d166;fill-rule:nonzero;"/><path d="M147.58,9.6l-1.08,0l-3.02,7.78l-1.9,1.72l-5.32,-10.71c4.68,0.24 4.81,2.61 4.82,-5.03c2.49,1.26 4.97,3.86 6.5,6.24Z" style="fill:#669c34;fill-rule:nonzero;"/><path d="M141.08,3.36c-0.01,7.64 -0.14,5.27 -4.82,5.03l-6.41,-5.26c0.58,-0.94 1.95,-1.35 1.65,-3.13c3.48,0.33 7.78,1.95 9.58,3.36Z" style="fill:#8abb3a;fill-rule:nonzero;"/><path d="M131.5,0c0.3,1.78 -1.07,2.19 -1.65,3.13c-1.56,-0.32 -4.81,-1.07 -5.1,-3l6.75,-0.13Z" style="fill:#74a931;fill-rule:nonzero;"/><path d="M147.58,9.6l1.64,2.84l-2.59,0.5c0.36,7.45 -3.25,11.99 -5.05,16.67c-0.03,0.08 -1,-0.09 -1.03,0c0.65,-2.63 1.04,-6.95 1.03,-10.51l1.9,-1.72l3.02,-7.78l1.08,0Z" style="fill:#74a931;fill-rule:nonzero;"/><path d="M147.91,44.63l3.07,7.85c-2.18,1.25 -4.47,2.73 -8.54,2.13c-1.75,-0.81 3.29,-8.5 4.02,-10.01l1.45,0.03Z" style="fill:#669c34;fill-rule:nonzero;"/><path d="M147.97,42.94l-0.06,1.69l-1.45,-0.03c-0.33,-2 0.86,-1.93 1.51,-1.66Z" style="fill:#74a931;fill-rule:nonzero;"/><path d="M15.28,22.36c2.7,0.28 2.69,4.54 3.29,6c-1.1,0.89 -3.6,2.84 -2.6,5.13c0.29,0.66 5.03,3.09 5.52,0.65l6.1,4.72c1.61,0.55 1.92,6.46 2.89,8.72c-2.23,4.09 -3.19,10.36 -7.15,12.43l-2.94,-1.65c1.13,-6.53 -3.78,-12.17 -4.84,-16.5c-1.26,-5.15 -2.9,-14.63 -0.27,-19.5Z" style="fill:#8abb3a;fill-rule:nonzero;"/><path d="M38.85,5.05c0.58,0.38 2.3,-0.65 1.62,0.99c-4.93,2.23 -10.36,5 -12.49,10.07c-5.89,-0.85 -7.6,9.48 -2.72,10.65c-0.05,4.28 1.35,8.36 2.33,12.1l-6.1,-4.72c-0.04,-2.57 -2.08,-4.25 -2.92,-5.78c-0.6,-1.46 -0.59,-5.72 -3.29,-6c3.2,-9.38 11.31,-16.75 23.57,-17.31Z" style="fill:#74a931;fill-rule:nonzero;"/><path d="M27.98,16.11c-0.2,4.09 -2.36,6.57 -2.72,10.65c-4.88,-1.17 -3.17,-11.5 2.72,-10.65Z" style="fill:#669c34;fill-rule:nonzero;"/><path d="M18.57,28.36c0.84,1.53 2.88,3.21 2.92,5.78c-0.49,2.44 -5.23,0.01 -5.52,-0.65c-1,-2.29 1.5,-4.24 2.6,-5.13Z" style="fill:#99c44a;fill-rule:nonzero;"/><path d="M20.39,58.36l2.94,1.65c0.47,1.96 1.88,3.93 1.89,5.94l-3.5,2.18c-2.43,1.56 -6.39,-1.78 -7.42,-4.08c3.95,0.68 5.41,-3.1 6.09,-5.69Z" style="fill:#74a931;fill-rule:nonzero;"/><path d="M128,178.19c-0.02,2.66 3.53,4.3 5.22,5.22l-4.21,13.07c-2.64,6.27 -5.44,11.51 -13.22,12.63c-8.82,1.27 -12.3,-6.24 -12.08,-13.25c-0.77,-8.09 -1.8,-12.56 -7.49,-14.65c-8.44,-3.11 -10.47,6.98 -10.87,13.98l-2.26,8.59c-2.32,-0.79 -2.36,-7.83 -3.87,-9.38c-3.6,-2.27 -9.45,-6.13 -12.78,-9.96l-9.48,1.35l0,-1.68l-11.79,1.5l0.15,-2.85l0.65,-0.65l0.5,-1c2.48,-3.48 -2.38,-3.48 -2.75,-2.62c-5.39,0.26 -18.83,0.25 -11.5,-5.48c1.78,1.72 8.48,1.81 12,1.57c1.58,-0.1 7.65,-3.66 7.98,-1.44c0.2,1.3 -3.39,6.76 -1.67,7.47c1,0.41 8.56,-1.19 9.51,-1.5c1.63,-0.54 9.39,-5.12 9.39,-5.12c3.41,0.13 0.92,15.32 14.79,7.77c4.48,-2.43 8.01,-6.34 13.2,-7.65c0.33,3.44 3.42,3.19 5.57,4.45c0.98,0.57 2.64,2.67 3.71,3.05c4.14,1.46 8.27,-4.35 10.91,-5.5l10.39,2.08Z" style="fill:#74a931;fill-rule:nonzero;"/><path d="M83.09,203.78c-7.53,9.58 -21.46,4.45 -22.96,-6.67l-3.17,-11.32l9.48,-1.35c3.33,3.83 9.18,7.69 12.78,9.96c1.51,1.55 1.55,8.59 3.87,9.38Z" style="fill:#8abb3a;fill-rule:nonzero;"/><path d="M139.02,171.06l3.49,3.03l-0.52,2.16c-3.26,-0.32 -5.15,3.01 -7.85,3.88l-0.92,3.28c-1.69,-0.92 -5.24,-2.56 -5.22,-5.22c3.54,-0.18 6.48,-2.68 8.34,-4.06c0.68,-0.5 0.52,-3.83 2.68,-3.07Z" style="fill:#669c34;fill-rule:nonzero;"/><path d="M147.72,177.83l-5.73,-1.58l0.52,-2.16c2.32,0.27 4.52,1.45 5.21,3.74Z" style="fill:#74a931;fill-rule:nonzero;"/><path d="M43.72,178.49c0.37,-0.86 5.23,-0.86 2.81,2.26l-2.81,-2.26Z" style="fill:#e8f1e3;fill-rule:nonzero;"/><path d="M27.97,125c-1.16,-0.28 -1.86,1.5 -1.46,1.86c-1.09,3.24 -2.1,7.08 -2.57,10.88l0.03,2.12l0.32,1c1.73,10.9 8.07,27.13 1.68,36.18c8.8,3.74 3.36,11.36 -3.64,5.04c-0.26,-4.6 -1.99,-1.39 -4.84,-1.41c-5.25,0.53 -8.65,-1.36 -12.01,-2.65c-11.95,-12.12 -1.53,-38.37 4.61,-49.66c0.84,1.88 0.24,6.71 -0.19,8.04c-0.49,1.47 -5.8,7.73 -2.85,8.32c1.06,0.21 5.07,-5.91 5.42,-7.26c0.53,-2.07 0.51,-10.34 -1.93,-10.04c2.72,-6.25 7.76,-12.93 11.52,-19.02l6.53,7.88l-0.62,8.72Z" style="fill:#99c44a;fill-rule:nonzero;"/><path d="M22.1,139.68c-0.38,1.21 -2.26,0.98 -2.26,0c0,-2.41 2.73,-1.5 2.26,0Z" style="fill:#b4d166;fill-rule:nonzero;"/><path d="M35.6,161.69c-1.04,-9.32 -5.39,-16.09 -7.16,-24.55l-0.56,-3.28l-0.35,-2.5l0.12,-3.44l0.32,-2.92l0.62,-8.72l-6.53,-7.88c-1.49,-3.36 -3.69,-7.92 -3.2,-13.93l1.61,0.62c-0.72,7.67 2.9,11.78 5.48,16.02c4.47,7.36 3.48,-0.76 3.53,11.25l0.05,14.5c0.01,2.64 7.26,16.86 8.5,20.4c0.27,0.77 -0.71,5.41 -2.43,4.43Z" style="fill:#74a931;fill-rule:nonzero;"/><path d="M27.65,127.92l-0.12,3.44l0.35,2.5l0.56,3.28c-1.88,-0.73 -1.91,-3.53 -4.5,0.6c0.47,-3.8 1.48,-7.64 2.57,-10.88l1.14,1.06Z" style="fill:#e8f1e3;fill-rule:nonzero;"/><path d="M27.97,125l-0.32,2.92l-1.14,-1.06c-0.4,-0.36 0.3,-2.14 1.46,-1.86Z" style="fill:#b4d166;fill-rule:nonzero;"/><path d="M10.09,128.36l0.45,-0.94c2.44,-0.3 2.46,7.97 1.93,10.04c-0.35,1.35 -4.36,7.47 -5.42,7.26c-2.95,-0.59 2.36,-6.85 2.85,-8.32c0.43,-1.33 1.03,-6.16 0.19,-8.04Z" style="fill:#74a931;fill-rule:nonzero;"/><path d="M17.47,181.61l0.43,0.43l2.65,1.68c1.48,0.72 2.96,5.75 0.36,6.89c-4.32,1.89 -6.59,-3.43 -7.53,-3.66c-0.57,-0.15 -2.74,2.54 -4.99,1.66c-2.44,-0.96 -4.25,-5.73 -3.08,-9c3.57,-0.34 4.7,3.51 7.04,4c-0.43,-3.08 2.82,-1.6 5.12,-2Z" style="fill:#99c44a;fill-rule:nonzero;"/><path d="M17.49,180.67l-0.02,0.94c-2.3,0.4 -5.55,-1.08 -5.12,2c-2.34,-0.49 -3.47,-4.34 -7.04,-4l0.17,-1.59c3.36,1.29 6.76,3.18 12.01,2.65Z" style="fill:#b4d166;fill-rule:nonzero;"/><path d="M22.33,182.08l-1.78,1.64l-2.65,-1.68l-0.43,-0.43l0.02,-0.94c2.85,0.02 4.58,-3.19 4.84,1.41Z" style="fill:#e8f1e3;fill-rule:nonzero;"/></g><path d="M112.93,74.86l-0.39,2l0.39,-2Z" style="fill:#e6e6e1;fill-rule:nonzero;"/><path d="M93.65,81.86l-0.87,-0.87l0.87,0.87Z" style="fill:#e6e6e1;fill-rule:nonzero;"/><path d="M27.88,133.86l-0.35,-2.5l0.35,2.5Z" style="fill:#b4d166;fill-rule:nonzero;"/><path d="M205.47,56.5l1.49,-0.06l-1.49,0.06Z" style="fill:#e8f1e3;fill-rule:nonzero;"/><path d="M24.29,140.86l-0.32,-1l0.32,1Z" style="fill:#e8f1e3;fill-rule:nonzero;"/><path d="M81.53,18.55l-0.56,0.56l0.56,-0.56Z" style="fill:#99c44a;fill-rule:nonzero;"/><path d="M80.97,19.11l-0.54,0.57l0.54,-0.57Z" style="fill:#99c44a;fill-rule:nonzero;"/><path d="M46.47,181.11l-0.5,0.5l0.5,-0.5Z" style="fill:#e8f1e3;fill-rule:nonzero;"/><path d="M17.9,182.04l-0.43,-0.43l0.43,0.43Z" style="fill:#b4d166;fill-rule:nonzero;"/><path d="M45.97,182.11l-0.65,0.65l0.65,-0.65Z" style="fill:#e8f1e3;fill-rule:nonzero;"/><path d="M64.97,76.11c3.63,-0.48 1.88,0.91 2.95,1.25l0.07,1.62c-4.71,0.33 -0.26,3.89 1.23,4.13c1.75,0.27 5.58,-0.16 6.14,-1.43l1.19,1.18c-1.87,2.89 -4.9,6.65 -9.24,8c-1.62,-0.03 -1.15,-1.26 -2.38,-1.91c-2.57,-1.35 -5.64,-0.42 -7.96,-4.87c-1.67,-3.22 3.9,-9.5 8,-7.97Z" style="fill:#f9fbf7;fill-rule:nonzero;"/><path d="M70.47,69.99c3.68,-0.35 5.46,1.97 6.58,4.06c0.11,3.15 -0.22,6.03 -1.69,7.63c-0.56,1.27 -4.39,1.7 -6.14,1.43c-1.49,-0.24 -5.94,-3.8 -1.23,-4.13c1.28,0.67 1.72,2.87 4.56,2.13c8.47,-4.22 -3.67,-15.78 -4.63,-3.75c-1.07,-0.34 0.68,-1.73 -2.95,-1.25c-0.26,-3.98 2.69,-5.42 5.5,-6.12Z" style="fill:#486a86;fill-rule:nonzero;"/><path d="M67.99,78.98l-0.07,-1.62c0.96,-12.03 13.1,-0.47 4.63,3.75c-2.84,0.74 -3.28,-1.46 -4.56,-2.13Z" style="fill:#060c11;fill-rule:nonzero;"/><path d="M74.4,63.86c1.7,2.82 3.57,6.01 3.71,10.25l-1.06,-0.06c-1.12,-2.09 -2.9,-4.41 -6.58,-4.06c-0.76,-3.24 2.29,-4.94 3.93,-6.13Z" style="fill:#f9fbf7;fill-rule:nonzero;"/><path d="M78.11,74.11c1.03,2.34 -0.85,6.65 -1.56,8.75l-1.19,-1.18c1.47,-1.6 1.8,-4.48 1.69,-7.63l1.06,0.06Z" style="fill:#e6e6e1;fill-rule:nonzero;"/></g></svg>
