<svg viewBox="0.0 -89.0 298 250" version="1.1" xmlns="http://www.w3.org/2000/svg" xmlns:xlink="http://www.w3.org/1999/xlink" style="fill-rule:evenodd;clip-rule:evenodd;stroke-linejoin:round;stroke-miterlimit:2;"><g><path d="M146.388,18.816c-7.52,-28.7 20.5,-8.77 26.09,-2.94c6.68,6.97 11.24,16.78 13.41,28.09l12.34,-5.09c0.65,3.18 -3.05,4.79 -3.51,6.55c-0.3,1.14 1.06,4.54 0.63,5.38c-3.44,6.69 -7.65,11.36 -13.62,15.28c2.85,4.96 8.92,9.19 8.76,17.13l11.73,7.29c0.69,0.44 1.95,-0.74 2.26,-0.59l4.24,2.22l3.93,3.58c0.13,1.46 1.23,3.02 1.72,3.59c3.49,4.17 8.06,9.98 11.37,13.93c0.38,0.45 2.14,1.3 3.24,1.43c1.84,2.15 4.55,8.3 4.98,12.55c-1.54,0.62 -2.27,2.94 -4.73,1.23c0.92,10.99 -3.34,5.96 -5.5,7.08c-0.15,0.08 0.56,4.19 -3.93,2.94c-4.42,-1.23 -3.55,-4.14 -5.52,-6.9c-0.39,-0.56 -2.74,-3.51 -3.2,-3.65c-3.39,-1.02 -3.04,4.1 -4.21,5.3c-5.35,5.53 -4.59,-6.35 -5.05,-9l1.04,-2.6c2.35,-1.09 -1.2,-6.06 -2.03,-6.9c-3.45,-3.52 -7.65,-8.71 -13.78,-10.33c-0.3,-0.12 -5.91,-4.5 -6.73,-4.08c-2.11,1.05 3.42,3.94 2.71,4.41c4.99,11.12 -15.29,23.91 -22.05,26.62c-16.07,6.46 -29.37,5.45 -46,1.57c-4.77,-1.11 -8.94,-6.86 -13.4,-0.19l-4.9,-5.58c-1.27,-11.87 -6.16,-18.63 -7.13,-31.35c-0.4,-5.23 1.2,-12.67 1.19,-18.18c0,-0.18 -1.12,-0.75 -1.98,-0.86l1.72,-6.72c1.52,-0.9 3.65,-3.99 7.06,-3.06c0.84,-0.4 2.05,-2.53 2.88,-3c0.24,-0.14 3.52,0.2 2.68,-0.92c1.28,-0.36 3.91,-0.74 4.89,-0.58c2.5,0.41 8.99,4.6 9.44,-0.59c0.28,-3.25 -10.19,-5.36 -13.75,-4.1c-0.19,-0.3 -0.91,-2.97 -1.39,-3.33c-1.38,-1 -3.29,0.38 -3.93,1.09c-0.21,0.24 0.58,2.35 0.57,2.85l-1.17,1.77c-1.62,0.05 -5.79,-0.96 -5.79,-0.34c1.32,3.21 1.92,8.24 -3.99,6.1c-0.78,-0.28 -1.64,-2.54 -2.12,-2.55c-1.33,-0.04 -3.48,3.05 -4.24,3.57c-0.91,-0.17 -5.02,0.2 -5.69,0c-0.86,-0.25 -4.4,-3.12 -4.84,-3.03c-2.17,0.43 0.69,3.32 1.76,3.57c-0.03,2.49 -7.14,17.46 0.26,11.37c0.27,-0.15 0,-1.13 0,-1.13c0.8,-0.57 1.79,-2.6 2.37,-2.5c1.3,0.22 4.23,2.48 5.13,2.85c2.59,3.54 8.8,19.06 -4.47,15.9c-10.85,-2.58 -18.55,-5.74 -24.39,-13.71c-0.74,-1 0.3,-5.13 -2.27,-4.04c-1.22,0.51 0.5,6.41 0.5,6.5l2.75,6c-9.03,-1.06 -20.22,0.49 -27.97,2.28l0.68,-1.66l9.28,-9.62l10.84,-12.91l1.1,0.71c0.7,0.49 1.68,2.69 3.17,2.48l5.55,-9.98l3.19,-3.88l9.27,-7.46c2.95,-1.2 7.45,-1.91 10.58,-3.4c1.04,-0.5 4.13,-3.47 5.87,-4.28c3.11,-1.46 7.13,-2.77 11.54,-3.1c0.76,0.23 3.1,0.18 3.04,-1.02c1.72,0.06 18.01,2.85 17.39,-0.24c-4.95,-3.77 -12.33,-6.55 -13.43,-13.92c-9.12,-1.44 -14.55,-1.18 -13.1,10.78c-17.74,-5.99 8.5,-19.58 15.14,-21.48c15.25,-4.38 31.84,1.31 40.87,8.44c-0.02,0.62 0.79,1.23 1.53,1.02l-0.88,-2.66Z" style="fill:#2ab6a0;fill-rule:nonzero;"/><path d="M145.168,72.016l1.01,2.45l0.67,2c3.05,11.54 -11.65,17.94 -16.87,8.15l1.31,-2.14c2.92,1.98 5.94,-3.6 4.69,-6.11l-1.16,-1.54c0.78,-2.38 -2.98,-1.05 -4.19,-1.19l-0.43,-1.12l4.56,-4.02c5.29,-0.88 8.29,1.19 10.41,3.52Z" style="fill:#fefefe;fill-rule:nonzero;"/><path d="M134.818,74.826c-3.58,0.19 -0.92,3.17 1.16,1.54c1.25,2.51 -1.77,8.09 -4.69,6.11l-0.59,-0.68l-1.22,-2.08l-0.33,-5l1.48,-1.08c1.21,0.14 4.97,-1.19 4.19,1.19Z" style="fill:#145e55;fill-rule:nonzero;"/><path d="M134.818,74.826l1.16,1.54c-2.08,1.63 -4.74,-1.35 -1.16,-1.54Z" style="fill:#caece9;fill-rule:nonzero;"/><path d="M129.578,72.446l0.62,0.07l0.43,1.12l-1.48,1.08l0.43,-2.27Z" style="fill:#178575;fill-rule:nonzero;"/><path d="M146.318,71.326l-1.15,0.69c-2.12,-2.33 -5.12,-4.4 -10.41,-3.52l-0.02,-1.25c4.83,-1.58 9.85,1.24 11.58,4.08Z" style="fill:#134c46;fill-rule:nonzero;"/><path d="M134.738,67.246l0.02,1.25l-4.56,4.02l-0.62,-0.07c0.46,-2.47 3.05,-4.29 5.16,-5.2Z" style="fill:#145e55;fill-rule:nonzero;"/><path d="M146.318,71.326l1.04,3.14l-1.18,0l-1.01,-2.45l1.15,-0.69Z" style="fill:#157668;fill-rule:nonzero;"/><path d="M130.698,81.796l0.59,0.68l-1.31,2.14l-0.47,-1.68l1.19,-1.14Z" style="fill:#e5f7f5;fill-rule:nonzero;"/><path d="M129.478,79.716l1.22,2.08l-1.19,1.14l-0.03,-3.22Z" style="fill:#b5e3de;fill-rule:nonzero;"/><path d="M147.358,74.466c0.31,0.4 0.47,2.11 -0.51,2l-0.67,-2l1.18,0Z" style="fill:#178575;fill-rule:nonzero;"/><path d="M114.348,72.596l1.81,3.66c1.97,3.89 -1.13,7.5 -1.82,9.86c-1.88,0.41 -2.11,0.84 -2.07,3.81c-5.94,0.91 -8.7,-2.53 -9.79,-6.33l1.2,-1.88c3.13,4.6 7.57,-0.9 5.8,-4.75c-0.55,-1.74 -1.02,-3.99 -3.78,-3.55l-1.01,-0.56l0.01,-0.25c0.73,-0.39 2.39,-2.58 3.12,-2.62c5.21,-0.35 3.76,1.16 6.53,2.61Z" style="fill:#fefefe;fill-rule:nonzero;"/><path d="M105.848,73.736l1.38,1.48c-1.1,0.94 -0.75,2.22 1.24,1.75l1.01,0c1.77,3.85 -2.67,9.35 -5.8,4.75l-0.6,-2.31l1.53,-4.9l1.24,-0.77Z" style="fill:#134c46;fill-rule:nonzero;"/><path d="M103.638,73.906l0.97,0.6l-1.53,4.9l-0.93,0.06l0.34,-5.49l1.15,-0.07Z" style="fill:#2a8688;fill-rule:nonzero;"/><path d="M103.478,71.386l1.22,1.22l-0.01,0.25l-1.05,1.05l-1.15,0.07l0.99,-2.59Z" style="fill:#145e55;fill-rule:nonzero;"/><path d="M104.688,72.856l1.01,0.56l0.15,0.32l-1.24,0.77l-0.97,-0.6l1.05,-1.05Z" style="fill:#b5e3de;fill-rule:nonzero;"/><path d="M109.478,76.966l-1.01,0l-1.24,-1.75l-1.38,-1.48l-0.15,-0.32c2.76,-0.44 3.23,1.81 3.78,3.55Z" style="fill:#1f7076;fill-rule:nonzero;"/><path d="M107.228,75.216l1.24,1.75c-1.99,0.47 -2.34,-0.81 -1.24,-1.75Z" style="fill:#b5e3de;fill-rule:nonzero;"/><path d="M103.078,79.406l0.6,2.31l-1.2,1.88l-0.33,-4.13l0.93,-0.06Z" style="fill:#caece9;fill-rule:nonzero;"/><path d="M114.338,86.116c0.92,0.29 8.07,1.28 7.01,3.39c-0.5,1.01 -4.05,-0.86 -5.55,-0.79c-1.26,0.06 -2.55,2.6 -3.53,1.21c-0.04,-2.97 0.19,-3.4 2.07,-3.81Z" style="fill:#157668;fill-rule:nonzero;"/><path d="M114.348,72.596c-2.77,-1.45 -1.32,-2.96 -6.53,-2.61c-0.73,0.04 -2.39,2.23 -3.12,2.62l-1.22,-1.22c0.58,-0.33 2.6,-2.87 3.27,-2.92c4,-0.28 8.66,0.92 7.6,4.13Z" style="fill:#134c46;fill-rule:nonzero;"/><path d="M145.648,54.876c0.82,0.47 1.35,3.16 0.67,3.45c-1.98,0.07 -5.37,0.35 -6.48,0.52c-4.36,0.67 -11.86,9.93 -12.61,0.82c6.35,-3.54 9.82,-9.59 18.42,-4.79Z" style="fill:#145e55;fill-rule:nonzero;"/><path d="M116.978,98.956c1.2,0.02 8.44,1.41 7.37,3.55c-0.74,1.48 -3.79,-1.48 -4.51,-1.54c-2.72,-0.22 -5.04,0.16 -6.04,1.51c-2.11,-1.3 2.25,-3.53 3.18,-3.52Z" style="fill:#157668;fill-rule:nonzero;"/><path d="M274.208,29.936c-4.35,0.59 -9.24,3.54 -12.23,4.36c-6.4,6.47 -15.5,12.06 0.32,15.92c7.95,3.48 19.29,6.63 31.52,6.86l-0.44,2.42c-10.28,-0.3 -21.07,-1.33 -30.03,-2.56l-6.17,-2.03c-2.55,1.76 -5.89,3.98 -6.81,7.12l-2.57,-3.28c-0.2,-0.25 -1.6,1.84 -1.95,1.76c-1.66,-0.37 -4.57,-2.16 -5.56,-3.14c-2.6,0.52 2.03,7.85 2.49,9.06l-3.37,0c-2.28,2.36 -6.69,6.4 -7.93,8.3c-3.12,4.76 -11.99,29.54 -18.83,20.99l-3.93,-3.58c2.73,-4.64 8.29,-7.15 11.63,-11.39c1.02,-1.3 3.19,-4.84 4.43,-6.93c0.67,-1.13 4.07,-11.71 1.15,-10.87c-1.1,0.32 -7.34,10.34 -8.95,12.14c-1.39,1.54 -12.19,13.72 -11.33,3.92l0.94,-0.29c14.59,-9.12 19.64,-28.45 25.72,-45.67c4.84,-3.85 18.78,-3.89 25.18,-5.5c9.76,-2.46 19.75,-5.83 27.08,-9.38c5.2,-2.51 7.59,-7.75 13.16,-9.7c0.03,6.11 -4.72,8.59 -7.13,11.98l-16.39,9.49Z" style="fill:#157668;fill-rule:nonzero;"/><path d="M290.598,20.446c-4.82,12.19 -1.39,28.61 5.88,36.24l-2.66,0.39c-12.23,-0.23 -23.57,-3.38 -31.52,-6.86c0.12,-1.15 -0.93,-3.84 -0.7,-4.14l12.61,-16.14l16.39,-9.49Z" style="fill:#2ab6a0;fill-rule:nonzero;"/><path d="M274.208,29.936l-12.61,16.14c-0.23,0.3 0.82,2.99 0.7,4.14c-15.82,-3.86 -6.72,-9.45 -0.32,-15.92c2.99,-0.82 7.88,-3.77 12.23,-4.36Z" style="fill:#1e9e8b;fill-rule:nonzero;"/><path d="M293.898,59.976l-0.52,-0.48l0.44,-2.42l2.66,-0.39c-0.4,-0.79 1.3,1 1.29,1.3c-0.07,2.03 -2.85,1.59 -3.87,1.99Z" style="fill:#178575;fill-rule:nonzero;"/><path d="M293.378,59.496l0.52,0.48c-13.01,6.25 -22.2,16.83 -22.36,36.12c-3.94,-2.54 -7.22,-7.9 -10.4,-11.61l-6.45,-10.66l0.12,-0.35c2.48,-0.2 1.52,-4.49 2.31,-6.16c1.5,-3.15 4.46,-7.05 6.23,-10.38c8.96,1.23 19.75,2.26 30.03,2.56Z" style="fill:#2ab6a0;fill-rule:nonzero;"/><path d="M263.348,56.936c-1.77,3.33 -4.73,7.23 -6.23,10.38c-0.79,1.67 0.17,5.96 -2.31,6.16c-0.36,-0.75 -1.42,-1.47 -1.54,-1.7l-4.05,-8.36c-0.19,-0.4 1.13,-1.04 1.15,-1.39c0.92,-3.14 4.26,-5.36 6.81,-7.12l6.17,2.03Z" style="fill:#1e9e8b;fill-rule:nonzero;"/><path d="M250.368,62.026c-0.02,0.35 -1.34,0.99 -1.15,1.39l4.05,8.36c0.12,0.23 1.18,0.95 1.54,1.7l-0.12,0.35l-4.71,1.09c-2.55,-1.25 -3.81,-7.36 -7.2,-8.49c-0.46,-1.21 -5.09,-8.54 -2.49,-9.06c0.99,0.98 3.9,2.77 5.56,3.14c0.35,0.08 1.75,-2.01 1.95,-1.76l2.57,3.28Z" style="fill:#178575;fill-rule:nonzero;"/><path d="M254.688,73.826l6.45,10.66l-2.5,1.73l-3.57,-3.85l-5.09,-7.45l4.71,-1.09Z" style="fill:#157668;fill-rule:nonzero;"/><path d="M261.138,84.486c3.18,3.71 6.46,9.07 10.4,11.61c2.37,3.19 2.64,5.27 -2.24,2.79c-0.25,-0.97 -2.65,-3.82 -10.66,-12.67l2.5,-1.73Z" style="fill:#178575;fill-rule:nonzero;"/><path d="M242.778,66.426c3.39,1.13 4.65,7.24 7.2,8.49l5.09,7.45c-6.2,0.69 -15.85,-0.17 -19.63,2.59c-9.93,9.14 2.63,3.14 0.79,11.88c-5.8,1.04 -12.49,2.53 -16.61,5.04c3.19,4.08 6.83,7.86 9.36,12.79c-1.1,-0.13 -2.86,-0.98 -3.24,-1.43c-3.31,-3.95 -7.88,-9.76 -11.37,-13.93c-0.49,-0.57 -1.59,-2.13 -1.72,-3.59c6.84,8.55 15.71,-16.23 18.83,-20.99c1.24,-1.9 5.65,-5.94 7.93,-8.3l3.37,0Z" style="fill:#1e9e8b;fill-rule:nonzero;"/><path d="M255.068,82.366l3.57,3.85c8.01,8.85 10.41,11.7 10.66,12.67c-9.12,-2.06 -22.83,-3.94 -33.07,-2.05c1.84,-8.74 -10.72,-2.74 -0.79,-11.88c3.78,-2.76 13.43,-1.9 19.63,-2.59Z" style="fill:#2ab6a0;fill-rule:nonzero;"/><path d="M11.118,12.216c-0.77,-1.32 -6.8,-8.51 -5.99,-11.19c1.23,-4.05 6.42,5.14 7.62,5.95c5.54,3.78 11.73,7.93 18.4,10.5c9.51,3.66 21.21,6.45 31.01,9.43c2.69,6.15 3.82,14.7 5.68,21.77l-9.27,7.46c-0.25,-1.25 -0.24,-8.75 -2.13,-7.67l-5.71,9.98c-0.1,0.16 0.09,1.51 0,1.67l-3.73,4.1l-1.44,2.59l-10.84,12.91l-1.99,-2.5l6.57,-10c1.59,-2.85 7.57,-10.47 8.18,-13.82c0.14,-0.8 -5.02,-3.91 -5.5,-5.05l-12.88,1.76l-25.67,1.03c-0.5,-0.26 -3.08,-0.58 -3.21,-0.7c-0.97,-0.92 1.6,-2.84 1.77,-1.85c12.62,-0.21 24.57,-2.7 33.24,-5.87c12.43,-2.92 7.01,-9.25 2.68,-15.21l-8.68,-4.09c-6.67,-2.69 -12.73,-6.87 -18.11,-11.2Z" style="fill:#157668;fill-rule:nonzero;"/><path d="M29.228,23.416c-0.1,5.2 4.01,7.13 6,10.24l0,9.06c-8.67,3.17 -20.62,5.66 -33.24,5.87c6.57,-8.19 13.24,-21.13 9.13,-36.37c5.38,4.33 11.44,8.51 18.11,11.2Z" style="fill:#2ab6a0;fill-rule:nonzero;"/><path d="M35.228,42.716l0,-9.06c-1.99,-3.11 -6.1,-5.04 -6,-10.24l8.68,4.09c4.33,5.96 9.75,12.29 -2.68,15.21Z" style="fill:#1e9e8b;fill-rule:nonzero;"/><path d="M29.098,50.106c0.75,2.43 2.48,5.71 4.33,8.87c1.85,3.16 3.93,6.3 5.87,8.24l-6.57,10c-2.98,3.47 -5.88,8.24 -9.63,10.63l-0.38,0.12c2.04,-20.6 -7.89,-30.76 -19.29,-36.83l25.67,-1.03Z" style="fill:#2ab6a0;fill-rule:nonzero;"/><path d="M39.298,67.216c-1.94,-1.94 -4.02,-5.08 -5.87,-8.24c-1.85,-3.16 -3.58,-6.44 -4.33,-8.87l12.88,-1.76c0.48,1.14 5.64,4.25 5.5,5.05c-0.61,3.35 -6.59,10.97 -8.18,13.82Z" style="fill:#1e9e8b;fill-rule:nonzero;"/><path d="M32.728,77.216l1.99,2.5l-9.28,9.62l-2.34,-1.49c3.75,-2.39 6.65,-7.16 9.63,-10.63Z" style="fill:#178575;fill-rule:nonzero;"/><path d="M23.098,87.846l2.34,1.49l-0.68,1.66c-4.71,2.58 -3.99,-0.19 -2.04,-3.03l0.38,-0.12Z" style="fill:#157668;fill-rule:nonzero;"/><path d="M58.568,56.136l-3.19,3.88c-1.53,-3.01 -2.8,-0.47 -4.65,0.1c0.09,-0.16 -0.1,-1.51 0,-1.67l5.71,-9.98c1.89,-1.08 1.88,6.42 2.13,7.67Z" style="fill:#145e55;fill-rule:nonzero;"/><path d="M55.378,60.016l-5.55,9.98c-1.49,0.21 -2.47,-1.99 -3.17,-2.48c0.5,-1.03 1.7,-2.13 0.34,-3.3l3.73,-4.1c1.85,-0.57 3.12,-3.11 4.65,-0.1Z" style="fill:#178575;fill-rule:nonzero;"/><path d="M46.998,64.216c1.36,1.17 0.16,2.27 -0.34,3.3l-1.1,-0.71l1.44,-2.59Z" style="fill:#1e9e8b;fill-rule:nonzero;"/><path d="M101.578,132.716c4.46,-6.67 8.63,-0.92 13.4,0.19c16.63,3.88 29.93,4.89 46,-1.57c6.76,-2.71 27.04,-15.5 22.05,-26.62c5.13,4.01 11.46,8.99 14.95,14.29c2.64,4.01 -15.84,17.29 -19.39,19.06c-24,12.02 -58.39,11.35 -77.01,-5.35Z" style="fill:#1e9e8b;fill-rule:nonzero;"/><path d="M187.048,104.386c2.33,3.86 7.38,6.73 10.06,9.45c2.16,2.2 3.65,5.49 5.75,7.78l-1.04,2.6l-2.02,2.13c-2.52,-0.05 -2.85,4.76 -3.24,5.47c-0.69,1.28 -2.62,1.82 -2.58,3.62c-1.78,-0.16 0.65,5.06 0.38,6.66c-2.8,16.69 -14.67,9.8 -23.5,4.37c0.26,9.45 -4.64,16.9 -14.13,13.24l0,-9.12l-1.25,-0.99c-3.88,0.64 -19.26,-1.26 -21.24,-0.55c-2.11,0.75 1.73,2.38 1.73,2.38c1.67,1.53 3.37,3.51 5.01,5.09c-9.53,8.21 -18.61,-4.96 -21.82,-10.94c-12.92,-4.24 -23.66,-11.84 -29.01,-23.48l1.82,-0.64c0.98,1.3 2.22,5.16 4.71,5.68l4.9,5.58c18.62,16.7 53.01,17.37 77.01,5.35c3.55,-1.77 22.03,-15.05 19.39,-19.06c-3.49,-5.3 -9.82,-10.28 -14.95,-14.29c0.71,-0.47 -4.82,-3.36 -2.71,-4.41c0.82,-0.42 6.43,3.96 6.73,4.08Z" style="fill:#178575;fill-rule:nonzero;"/><path d="M96.678,127.136c-2.49,-0.52 -3.73,-4.38 -4.71,-5.68c-1.27,-6.73 -4.12,-12.66 -4.78,-20.06c-0.89,-1.56 -1.04,-1.55 -2.05,0.07c-0.11,2.08 -4.03,0.43 -5.4,0.42c-8.28,-2.51 -9.85,-2.78 -10.76,-1.87l-7,-3.8l-3.5,-3.71c-3.12,-2.83 -4.36,-7.75 -8.5,-9.79c0,-0.09 -1.72,-5.99 -0.5,-6.5c2.57,-1.09 1.53,3.04 2.27,4.04c5.84,7.97 13.54,11.13 24.39,13.71c13.27,3.16 7.06,-12.36 4.47,-15.9l2.87,-0.6c1.15,-0.11 5.1,4 5.28,-0.72c0.86,0.11 1.98,0.68 1.98,0.86c0.01,5.51 -1.59,12.95 -1.19,18.18c0.97,12.72 5.86,19.48 7.13,31.35Z" style="fill:#1e9e8b;fill-rule:nonzero;"/><path d="M87.188,101.396c0.66,7.4 3.51,13.33 4.78,20.06l-1.82,0.64c-1.83,-4.69 -3.58,-10.42 -3.57,-17.3l-6.85,-1.76l0.01,-1.15c1.37,0.01 5.29,1.66 5.4,-0.42l2.05,-0.07Z" style="fill:#157668;fill-rule:nonzero;"/><path d="M68.978,100.016c0.91,-0.91 2.48,-0.64 10.76,1.87l-0.01,1.15c-3.79,-0.52 -7.46,-2.05 -10.75,-3.02Z" style="fill:#178575;fill-rule:nonzero;"/><path d="M85.138,101.466c1.01,-1.62 1.16,-1.63 2.05,-0.07l-2.05,0.07Z" style="fill:#178575;fill-rule:nonzero;"/><path d="M58.478,92.506l-1.4,0.61l-4.35,-4.4l-2.75,-6c4.14,2.04 5.38,6.96 8.5,9.79Z" style="fill:#157668;fill-rule:nonzero;"/><path d="M61.978,96.216l-4.9,-3.1l1.4,-0.61l3.5,3.71Z" style="fill:#178575;fill-rule:nonzero;"/><path d="M201.818,124.216c0.46,2.65 -0.3,14.53 5.05,9c1.17,-1.2 0.82,-6.32 4.21,-5.3c0.46,0.14 2.81,3.09 3.2,3.65c1.97,2.76 1.1,5.67 5.52,6.9c4.49,1.25 3.78,-2.86 3.93,-2.94c2.16,-1.12 6.42,3.91 5.5,-7.08c2.46,1.71 3.19,-0.61 4.73,-1.23c1.31,4.19 -1.19,8.03 -3.73,9.78c-0.17,0.27 0.13,2.1 0,2.27c-3.42,4.46 -4.03,2.3 -6.05,3.2c-0.65,0.29 -2.75,2.6 -3.31,2.64c-8.59,0.58 -6.55,-13.13 -9.67,-14.64c-1.9,-0.92 -2.88,4.7 -3.57,5.5c-0.69,0.8 -3.51,2.68 -5.15,1.96l-3.39,-3.57l0.71,-8.01l2.02,-2.13Z" style="fill:#1e9e8b;fill-rule:nonzero;"/><path d="M199.798,126.346l-0.71,8.01l3.39,3.57c-3.69,0.35 -6.27,-1.26 -8.5,-2.49c-0.04,-1.8 1.89,-2.34 2.58,-3.62c0.39,-0.71 0.72,-5.52 3.24,-5.47Z" style="fill:#157668;fill-rule:nonzero;"/><path d="M140.978,156.516c-1.64,-1.58 -3.34,-3.56 -5.01,-5.09c0,0 -3.84,-1.63 -1.73,-2.38c1.98,-0.71 17.36,1.19 21.24,0.55l1.25,0.99l0,9.12c-4.51,-1.75 -8.08,-5.56 -10.93,-8.74c-3.06,-0.41 -3.09,5.17 -4.82,5.55Z" style="fill:#157668;fill-rule:nonzero;"/><path d="M202.858,121.616c-2.1,-2.29 -3.59,-5.58 -5.75,-7.78c-2.68,-2.72 -7.73,-5.59 -10.06,-9.45c6.13,1.62 10.33,6.81 13.78,10.33c0.83,0.84 4.38,5.81 2.03,6.9Z" style="fill:#1e9e8b;fill-rule:nonzero;"/><path d="M205.098,37.966c0.67,6.79 0.76,6.98 5.51,11.25c-2.24,4.53 -8.12,10.23 -12.39,13.01c2.47,4.19 5.27,10.54 6.38,14.99c-2.62,0.58 -3.32,6.8 -3.32,10.09c0,0.35 2.5,1.84 3.2,2.61c-0.31,-0.15 -1.57,1.03 -2.26,0.59l-11.73,-7.29c0.16,-7.94 -5.91,-12.17 -8.76,-17.13c5.97,-3.92 10.18,-8.59 13.62,-15.28c0.43,-0.84 -0.93,-4.24 -0.63,-5.38c0.46,-1.76 4.16,-3.37 3.51,-6.55c1.39,-0.47 4.91,-1.14 6.87,-0.91Z" style="fill:#1e9e8b;fill-rule:nonzero;"/><path d="M204.598,77.216l1.05,1.79c-0.86,9.8 9.94,-2.38 11.33,-3.92c1.61,-1.8 7.85,-11.82 8.95,-12.14c2.92,-0.84 -0.48,9.74 -1.15,10.87c-1.24,2.09 -3.41,5.63 -4.43,6.93c-3.34,4.24 -8.9,6.75 -11.63,11.39l-4.24,-2.22c-0.7,-0.77 -3.2,-2.26 -3.2,-2.61c0,-3.29 0.7,-9.51 3.32,-10.09Z" style="fill:#178575;fill-rule:nonzero;"/><path d="M210.608,49.216c-4.75,-4.27 -4.84,-4.46 -5.51,-11.25c7.04,-0.26 8.92,5.92 5.51,11.25Z" style="fill:#178575;fill-rule:nonzero;"/><path d="M89.728,33.496c-1.45,-11.96 3.98,-12.22 13.1,-10.78c1.1,7.37 8.48,10.15 13.43,13.92c0.62,3.09 -15.67,0.3 -17.39,0.24l-2.52,-0.91l-6.62,-2.47Z" style="fill:#1e9e8b;fill-rule:nonzero;"/><path d="M98.868,36.876c0.06,1.2 -2.28,1.25 -3.04,1.02l0.52,-1.93l2.52,0.91Z" style="fill:#caece9;fill-rule:nonzero;"/><path d="M103.678,57.776c-0.26,1.08 -3.05,4.18 -0.58,5.27c0.84,1.12 -2.44,0.78 -2.68,0.92c-0.83,0.47 -2.04,2.6 -2.88,3c-3.41,-0.93 -5.54,2.16 -7.06,3.06c-0.93,-0.26 -3.73,0.13 -4.12,0c-0.97,-0.32 -2.5,-3.08 -3.94,-1.87l-0.8,-1.22c0.76,-0.52 2.91,-3.61 4.24,-3.57c0.48,0.01 1.34,2.27 2.12,2.55c5.91,2.14 5.31,-2.89 3.99,-6.1c0,-0.62 4.17,0.39 5.79,0.34c0.52,3.95 5.73,-1.73 1.17,-1.77c0.01,-0.5 -0.78,-2.61 -0.57,-2.85c0.64,-0.71 2.55,-2.09 3.93,-1.09c0.48,0.36 1.2,3.03 1.39,3.33Z" style="fill:#1e9e8b;fill-rule:nonzero;"/><path d="M90.478,70.026l-1.72,6.72c-0.18,4.72 -4.13,0.61 -5.28,0.72c-2.81,-2.24 -6.85,-4 -6.76,-9.14c1.23,0.17 5.14,0.37 5.7,-0.17c1.44,-1.21 2.97,1.55 3.94,1.87c0.39,0.13 3.19,-0.26 4.12,0Z" style="fill:#e5f7f5;fill-rule:nonzero;"/><path d="M81.618,66.936l0.8,1.22c-0.56,0.54 -4.47,0.34 -5.7,0.17c-0.09,5.14 3.95,6.9 6.76,9.14l-2.87,0.6c-0.9,-0.37 -3.83,-2.63 -5.13,-2.85c-0.58,-0.1 -1.57,1.93 -2.37,2.5c-1.5,-2.59 4.54,-9.23 -0.26,-10.24c-1.07,-0.25 -3.93,-3.14 -1.76,-3.57c0.44,-0.09 3.98,2.78 4.84,3.03c0.67,0.2 4.78,-0.17 5.69,0Z" style="fill:#178575;fill-rule:nonzero;"/><path d="M73.108,77.716c0,0 0.27,0.98 0,1.13c-7.4,6.09 -0.29,-8.88 -0.26,-11.37c4.8,1.01 -1.24,7.65 0.26,10.24Z" style="fill:#1e9e8b;fill-rule:nonzero;"/><path d="M103.098,63.046c-2.47,-1.09 0.32,-4.19 0.58,-5.27c3.56,-1.26 14.03,0.85 13.75,4.1c-0.45,5.19 -6.94,1 -9.44,0.59c-0.98,-0.16 -3.61,0.22 -4.89,0.58Z" style="fill:#157668;fill-rule:nonzero;"/><path d="M97.758,60.156l1.17,-1.77c4.56,0.04 -0.65,5.72 -1.17,1.77Z" style="fill:#178575;fill-rule:nonzero;"/><path d="M145.738,20.456l0.65,-1.64l0.88,2.66c-0.74,0.21 -1.55,-0.4 -1.53,-1.02Z" style="fill:#caece9;fill-rule:nonzero;"/></g></svg>
