<svg viewBox="0.0 -69.0 306 250" version="1.1" xmlns="http://www.w3.org/2000/svg" xmlns:xlink="http://www.w3.org/1999/xlink" style="fill-rule:evenodd;clip-rule:evenodd;stroke-linejoin:round;stroke-miterlimit:2;"><g><path d="M186.44,31.21c1.39,2.86 3.74,6.88 4.64,9.35c1.19,3.3 1.57,8.98 3.37,11.32c3.76,-2.95 8.87,-6.12 13.93,-7.11c6.06,8.62 -0.57,9.52 -2.81,13.24c-0.77,1.28 -1.36,5.2 -3.04,6.54c-0.39,1.47 3.26,5.77 4.42,6.5c1.09,4.32 4.54,9.75 6.38,13.5c-0.7,0.46 0.85,3.32 1.27,4.74l1.38,5l1.13,9.26c-0.04,13.39 -0.1,14.49 -1.01,19.27l-6.81,0c-9.16,10.17 -18.97,19.51 -33.97,24.11c-22.9,7.01 -50.5,-0.07 -57.75,-18.64c4.31,-1.2 9.65,-3.68 8.22,-9.24c0.43,-1.16 2.65,-4.35 2.22,-7.5c1.57,-12.09 -11.38,-17.5 -20.96,-11.33c-1.2,-1.67 -0.78,-7.43 -1.23,-9.67c-2.96,0.45 -4.39,-1.9 -6.22,-3c0.07,-2 2.79,-6.85 1.61,-9.5c-0.74,-0.08 6.34,-4.03 3.39,-5.25c-1.72,-0.71 -3.39,3.28 -4.21,3.5c-2.02,0.54 -5.97,-0.39 -7.57,-1.04l-4.6,-2.44c-1.03,-1.93 -2.56,-1.25 -5.09,-0.83c0.07,-0.98 0.13,-5.65 -0.58,-6.94c2.28,-3.55 7.29,-7.48 11.56,-9.86c2.19,-1.21 6.78,-2.24 9.5,-3.39c0.62,-0.26 3.95,0.65 2.95,-0.77c24.24,1.69 4.48,-8.21 2.53,-15.24c-5.76,0.94 -10.76,3.48 -13.75,-2.04c3.71,-3.26 8.83,-5.98 13.9,-7.96c5.86,-1.66 14.7,-3.92 22.83,-2.49c5.19,0.42 10.45,2.6 14.26,3.59c1.32,0.44 2.86,2.1 4.96,1.9c-0.64,-1.31 -2.39,-3.16 -3.1,-3.98c-1.36,-2.51 -5.74,-8.1 -2.65,-11.38c5.79,-2.8 16.43,-0.52 21.22,1.42c7.9,3.2 15.39,9.48 19.68,16.36Z" style="fill:#2ab6a0;fill-rule:nonzero;"/><path d="M181.07,84.05l0.49,7.75c-0.18,1.77 0.22,9.6 0,10.46c-1.62,6.42 -4.33,13.72 -9.74,15.74c-5.79,-6.53 -21.3,-8.9 -29.86,-3.45c-3.08,-1.56 -13.98,-19.47 -12.39,-24.21c0.14,-0.44 3.16,-1.47 3.88,-1.02l1.37,3.43c3.6,7.31 11.26,9.92 10.75,-3.01l-0.55,-2.45l19.01,-5.58c-0.48,1.79 0.79,2.27 1.1,3.12c0.92,1.91 4.12,6.05 8.11,4.97c2.85,-0.77 1.4,-5.59 1.83,-9.18l-0.06,-2.94c1.37,-0.53 3.91,-3.47 4.94,-1.57c0.75,1.38 0.88,6.84 1.12,7.94Z" style="fill:#145e55;fill-rule:nonzero;"/><path d="M182.7,91.8c0.86,12.7 -1.81,22.23 -8.64,26.86c-8.3,5.62 -22.54,5.2 -29.74,-1.35c8.39,-2.24 19.14,-0.4 27.5,0.69c5.41,-2.02 8.12,-9.32 9.74,-15.74c0.22,-0.86 -0.18,-8.69 0,-10.46l1.14,0Z" style="fill:#948d82;fill-rule:nonzero;"/><path d="M171.82,118c-8.36,-1.09 -19.11,-2.93 -27.5,-0.69l-2.36,-2.76c8.56,-5.45 24.07,-3.08 29.86,3.45Z" style="fill:#1e9e8b;fill-rule:nonzero;"/><path d="M182.7,91.8l-1.14,0l-0.49,-7.75c1.54,1.45 1.2,5.2 1.63,7.75Z" style="fill:#2a8688;fill-rule:nonzero;"/><path d="M145.57,89.74c0.51,12.93 -7.15,10.32 -10.75,3.01c1.9,-2.39 7.22,-2.17 10.75,-3.01Z" style="fill:#fefefe;fill-rule:nonzero;"/><path d="M145.02,87.29l0.55,2.45c-3.53,0.84 -8.85,0.62 -10.75,3.01l-1.37,-3.43l11.57,-2.03Z" style="fill:#d9e6e6;fill-rule:nonzero;"/><path d="M175.07,80.62c-0.43,3.59 1.02,8.41 -1.83,9.18c-3.99,1.08 -7.19,-3.06 -8.11,-4.97c1.86,-2.61 5.83,-3.73 9.94,-4.21Z" style="fill:#fefefe;fill-rule:nonzero;"/><path d="M175.01,77.68l0.06,2.94c-4.11,0.48 -8.08,1.6 -9.94,4.21c-0.31,-0.85 -1.58,-1.33 -1.1,-3.12c3.14,-1.19 7.13,-3.43 10.98,-4.03Z" style="fill:#d9e6e6;fill-rule:nonzero;"/><path d="M177.15,67.3c-0.8,1.95 -6.07,-2.1 -7.1,-2.13c-8.21,-0.19 -7.99,6.85 -9.6,7.17c-3.58,0.72 0.62,-6.41 1.37,-7.1c4.05,-3.67 12.76,-3.6 15.33,2.06Z" style="fill:#145e55;fill-rule:nonzero;"/><path d="M169.32,50.8c0.98,0.06 4.8,2.83 3,4.25c-0.62,0.49 -6.21,-0.6 -7.5,-0.32c-1.43,0.32 -3.41,2.57 -4.78,3.07c-3.13,1.13 -2.21,-7.66 9.28,-7Z" style="fill:#145e55;fill-rule:nonzero;"/><path d="M127.92,78.62c0.76,-2.53 3.71,-5.78 6.81,-6.42c4.27,-0.89 11.2,1.41 10.91,5.6c-2.27,0.5 -3.44,-2.23 -4.67,-2.43c-5.33,-0.86 -8.84,0.14 -11.08,4.52l-1.97,-1.27Z" style="fill:#134c46;fill-rule:nonzero;"/><path d="M127.92,78.62l1.97,1.27c-0.58,4.47 -4.77,1.94 -1.97,-1.27Z" style="fill:#145e55;fill-rule:nonzero;"/><path d="M129.82,60.82c1.78,-0.48 6.07,1.83 4,3.73c-0.45,0.41 -4.25,0.26 -4.76,0.55c-1.16,0.66 -5.26,6.93 -6.49,3.58c-1.25,-3.41 4.89,-7.23 7.25,-7.86Z" style="fill:#157668;fill-rule:nonzero;"/><path d="M158.19,74.84c-0.37,0.74 -5.87,0.79 -7.12,1.08c-1.46,-2.41 8.56,-3.95 7.12,-1.08Z" style="fill:#157668;fill-rule:nonzero;"/><path d="M7.97,48.05c-0.84,-1.23 -7.23,-8 -7.01,-10.23c0.47,-4.81 5.55,2.47 6.15,2.85c1.84,1.17 4.69,3.82 6.28,4.61c7.43,3.71 16.11,6.99 25.17,9.07l20.31,4.48c3.42,3.99 3.9,10.09 6.26,15.22c4.57,9.92 8.08,17.17 17.64,23.49c2.67,1.77 9.54,4.29 14.12,4.8c1.9,0.65 0.92,4.41 1.18,6.96l-1.59,0l-14.93,-8.5l-1.83,0c-5,2.2 2.37,6.95 3.62,7.52c4.34,1.97 9.4,3.73 14.73,4.65l0,4.7c-1.3,0.36 -4.85,0.08 -6,0.62c-2.64,1.23 -4.12,4.32 -7.56,4.51c-0.94,-2.55 -2.28,-4 -13.23,-13.45c-3.33,-5.31 -8.41,-10.85 -11.14,-15.84l0.44,-2.95l-4.03,-11.15l-3.54,11.13c-0.1,0.33 0.58,1.26 0.92,1.44c1.17,0.83 -2.14,0.66 -2.31,0.85c-0.81,0.89 -1.59,3.27 -2.19,4.51l-2.76,5.21l-15.12,24.37c-3.11,2.67 -4.67,0.52 -2.44,-2.37c4.95,-6.2 9.37,-15.15 12.5,-22.51c0.91,-2.33 6.32,-12.99 6.46,-14.89c0.04,-0.53 -5.19,-4.81 -5.88,-4.85c-2.56,-0.16 -10.61,2.85 -13.37,3.48c-5.23,0.75 -13.87,2.34 -18.99,3.07c-1.73,0.25 -5.61,-0.78 -5.79,0.89c-1.29,-0.45 -4.04,0.12 -4.04,-1.96c0,-0.51 1.49,-1.49 1.32,-0.83c10.94,-1.03 20.53,-3.97 28.99,-7.03l5.29,-2.87c2.42,-0.91 5.85,-3.08 6.97,-4.5c-0.04,-3.48 -5.13,-9.48 -7.06,-11c-1.29,-1.02 -6.72,-2.69 -9.51,-3.25l-7.43,-4.02l-10.6,-6.23Z" style="fill:#157668;fill-rule:nonzero;"/><path d="M67.99,87.3c0.8,0.29 5.07,5.51 4.08,7.03c-2.2,3.35 -7.75,-8.35 -4.08,-7.03Z" style="fill:#178575;fill-rule:nonzero;"/><path d="M28.82,85.78c1.4,3.34 5.13,5.86 7.59,7.5c1.35,3.14 2.46,6.94 5.2,8.76c-3.13,7.36 -7.55,16.31 -12.5,22.51c-0.58,-8.83 -2.94,-16.97 -6.84,-21.97c-1.23,-1.92 -4.02,-5.31 -5.97,-6.37c-3.09,-2.72 -8.02,-4.7 -12.26,-6.47c0.18,-1.67 4.06,-0.64 5.79,-0.89c5.12,-0.73 13.76,-2.32 18.99,-3.07Z" style="fill:#2ab6a0;fill-rule:nonzero;"/><path d="M41.61,102.04c-2.74,-1.82 -3.85,-5.62 -5.2,-8.76c-2.46,-1.64 -6.19,-4.16 -7.59,-7.5c2.76,-0.63 10.81,-3.64 13.37,-3.48c0.69,0.04 5.92,4.32 5.88,4.85c-0.14,1.9 -5.55,12.56 -6.46,14.89Z" style="fill:#1e9e8b;fill-rule:nonzero;"/><path d="M18.57,54.28c-0.41,2.83 2.03,3.87 2.56,5.41c0.28,0.81 0.21,5.01 0.58,5.64c4.28,2.67 7.86,7.65 8.6,14.59c-8.46,3.06 -18.05,6 -28.99,7.03c1.47,-2.99 3.9,-5.39 4.84,-8.62c2.26,-4.07 3.4,-10.62 4.11,-16.55l-2.3,-13.73l10.6,6.23Z" style="fill:#2ab6a0;fill-rule:nonzero;"/><path d="M26,58.3c3.1,7.06 11.16,6.19 9.6,18.75l-5.29,2.87c-0.74,-6.94 -4.32,-11.92 -8.6,-14.59c-0.37,-0.63 -0.3,-4.83 -0.58,-5.64c-0.53,-1.54 -2.97,-2.58 -2.56,-5.41l7.43,4.02Z" style="fill:#1e9e8b;fill-rule:nonzero;"/><path d="M35.6,77.05c1.56,-12.56 -6.5,-11.69 -9.6,-18.75c2.79,0.56 8.22,2.23 9.51,3.25c1.93,1.52 7.02,7.52 7.06,11c-1.12,1.42 -4.55,3.59 -6.97,4.5Z" style="fill:#178575;fill-rule:nonzero;"/><path d="M98.07,117.67l2.84,1.14l1.82,0.59l2.75,2.15l-1.63,4.76l-1.73,1.59c-0.47,-0.24 -2.08,-2.04 -2.45,-1.85c-1.8,0.9 2.11,3.49 2.42,3.97c0.44,0.67 0.86,3.01 1.4,3.31l0.06,4.38c-1.1,0.73 -2.24,3.25 -4.34,2.59c-0.95,-2.71 -1.8,-6.36 -5.84,-6c1.78,1.54 3.65,3.94 4.61,6.05l0.2,2.89l-2.86,0.64c-3.54,-0.54 -6.99,-3.35 -12.75,-2.58c-3.44,-1.11 -1.39,-6.43 -1.43,-8.85c1.1,-0.57 2,-2.94 0.89,-4.4c-0.31,-1.39 4.2,-3.61 2.48,-5.25c3.44,-0.19 4.92,-3.28 7.56,-4.51c1.15,-0.54 4.7,-0.26 6,-0.62Z" style="fill:#2ab6a0;fill-rule:nonzero;"/><path d="M59.32,107.19l5.33,2.19c3.04,7.42 -6.82,5.35 -11.73,6.41c-2.25,0.49 -4.6,2.15 -4.55,5.63c-4.84,1.23 -11.76,3.57 -16.82,5.5l15.12,-24.37c2.21,1.26 4.4,4.35 6.29,5.81l6.36,-1.17Z" style="fill:#2ab6a0;fill-rule:nonzero;"/><path d="M71.28,109.35c10.95,9.45 12.29,10.9 12.32,13.31c-8.7,-3.46 -24.54,-3.68 -35.23,-1.24c-0.05,-3.48 2.3,-5.14 4.55,-5.63c4.91,-1.06 14.77,1.01 11.73,-6.41l6.63,-0.03Z" style="fill:#1e9e8b;fill-rule:nonzero;"/><path d="M60.14,93.51c2.73,4.99 7.81,10.53 11.14,15.84l-6.63,0.03l-5.33,-2.19l-9.89,-9.85c0.6,-1.24 1.38,-3.62 2.19,-4.51c0.17,-0.19 3.48,-0.02 2.31,-0.85c1.95,-2.72 4.61,0.44 6.21,1.53Z" style="fill:#178575;fill-rule:nonzero;"/><path d="M59.32,107.19l-6.36,1.17c-1.89,-1.46 -4.08,-4.55 -6.29,-5.81l2.76,-5.21l9.89,9.85Z" style="fill:#1e9e8b;fill-rule:nonzero;"/><path d="M60.14,93.51c-1.6,-1.09 -4.26,-4.25 -6.21,-1.53c-0.34,-0.18 -1.02,-1.11 -0.92,-1.44l3.54,-11.13l4.03,11.15l-0.44,2.95Z" style="fill:#145e55;fill-rule:nonzero;"/><path d="M95.34,33.75c2.99,5.52 7.99,2.98 13.75,2.04c1.95,7.03 21.71,16.93 -2.53,15.24c-11.56,-3.74 -25.17,-4.73 -11.22,-17.28Z" style="fill:#1e9e8b;fill-rule:nonzero;"/><path d="M62.1,28.34c-0.45,4.13 -5.94,6.41 -9.84,4.99c-6.93,-4.73 -0.27,-12.53 7.27,-9.65c0.96,-3.08 1.18,-20.33 3.08,-21.38c1.82,-1.01 2.93,3.36 3.55,4.13c1.75,2.22 11.76,9.64 3.41,13.37c0.93,-5.72 -2.27,-7.57 -5.51,-8.99l-1.96,17.53Z" style="fill:#1e9e8b;fill-rule:nonzero;"/><path d="M92.82,75.26c1.1,2.44 4.05,3.33 3.26,7.61c-3.59,2.88 -12.05,10.15 -17.13,4.18c3.5,-1.61 3.06,-6.24 4.84,-9.5c0.45,-0.82 3.28,-3.39 4.43,-4.73l4.6,2.44Z" style="fill:#178575;fill-rule:nonzero;"/><path d="M82.55,65.05c0.71,1.29 0.65,5.96 0.58,6.94c2.53,-0.42 4.06,-1.1 5.09,0.83c-1.15,1.34 -3.98,3.91 -4.43,4.73c-1.78,3.26 -1.34,7.89 -4.84,9.5c-4.28,-6.33 -0.39,-17.98 3.6,-22Z" style="fill:#1e9e8b;fill-rule:nonzero;"/><path d="M101.21,78.05l-5.13,4.82c0.79,-4.28 -2.16,-5.17 -3.26,-7.61c1.6,0.65 5.55,1.58 7.57,1.04c0.82,-0.22 2.49,-4.21 4.21,-3.5c2.95,1.22 -4.13,5.17 -3.39,5.25Z" style="fill:#1e9e8b;fill-rule:nonzero;"/><path d="M282.53,33.05l-6.71,4.69l-9.27,5.31l-4.51,6.03c-0.04,0.86 -1.11,1.96 -1.11,2.08c0,3.61 0.01,4.21 3.14,4.85c0.56,0.8 3.99,1.73 5.5,2.33l4.25,1.13c8.07,2.53 18.85,4.04 29.96,3.81c0.53,-0.66 2.24,1.8 0.87,2.1l-3.83,0.86c-9.6,-0.5 -21.44,-0.65 -30.19,-1.93c-5.18,-3.27 -14.34,1.18 -13.35,5.66c0.66,2.95 3.35,7.71 4.54,10.06c4.46,8.5 10.54,17.96 17.08,24.52c0.1,0.52 1.93,1.85 1.14,3.75c-0.57,1.39 -2.12,-0.41 -2.96,-0.61c-0.03,-0.88 -3.04,-4.74 -13.4,-17.14c-4.06,-4.94 -8.15,-12.65 -12.56,-17.75c-2,-2.3 -6.84,3.11 -7.28,3.42l-1.78,1.38c-1.21,4.78 -4.16,8.75 -6.16,12.7c-8.78,10.82 -11.33,14.3 -11.32,15.47l-2.48,1.1l-3.06,-1.82l-1.93,-1.5l-1.13,-9.26c9.42,-1.61 15.04,-9.33 19.07,-15.84c0.72,-1.16 2.75,-7.54 0.95,-7.9c-6.29,6.65 -11.78,15.4 -21.4,18.74c-0.42,-1.42 -1.97,-4.28 -1.27,-4.74c7.63,-3.67 15.14,-8.7 18.66,-15.68c3.85,-7.64 6.78,-16.68 9.85,-25.09c0.62,-1.4 3.62,-1.61 4.7,-2.32c16.76,-4.16 30.49,-11.52 42.23,-20.87c1.1,-0.87 5.38,-8.69 6.9,-8.91c2.12,-0.3 0.91,4.69 0.38,5.89c-0.78,1.75 -3.68,5.72 -4.56,7.48l-8.96,8Z" style="fill:#157668;fill-rule:nonzero;"/><path d="M232.32,26.88c-1.47,3.48 -7.93,6 -10.3,1.5c-1.43,-4.39 2.09,-7.8 7.55,-7.08l0,-11.43l-13.39,-2.64c-0.57,8.58 1.95,19.51 -6.18,20.67c-2.81,-0.73 -5.55,-1.81 -4.99,-6.16c1.13,-2.47 5.11,-4.04 7.81,-3.25l0.3,-18.49l19.2,4.18l0,22.7Z" style="fill:#1e9e8b;fill-rule:nonzero;"/><path d="M206.95,71.05c-1.16,-0.73 -4.81,-5.03 -4.42,-6.5c1.68,-1.34 2.27,-5.26 3.04,-6.54c2.24,-3.72 8.87,-4.62 2.81,-13.24c3.46,-1.68 9.7,-1.31 11.52,0.91c5.68,6.93 -9.26,22.53 -12.95,25.37Z" style="fill:#1e9e8b;fill-rule:nonzero;"/><path d="M244.5,90.36l8.29,-1.88c2.67,0.92 5.36,2.84 7.81,3.43c0.36,0.09 2.05,-1.2 3.08,-1.36c10.36,12.4 13.37,16.26 13.4,17.14c-5.43,-1.91 -11.99,-3.93 -18.9,-5.01l0.46,4.12l-1.62,0c-2.65,2.41 -5.98,6.23 -9.07,7.78c1.5,1.83 3.14,3.57 2.66,7.26c-1.23,1.78 -1.58,2.04 -3.79,1.93c-0.48,-0.03 -1.87,-2.19 -3.75,-1.47c0.2,1.86 2.75,2.39 1.02,4.6c-1.53,0.68 -4.73,3.2 -5.72,3.34c-7.67,1.06 -10.63,0.38 -15.55,-1.45c-4.12,-1.53 -1.09,-3.42 -1.1,-5.95c-0.02,-2.77 -0.27,-7.87 -1.6,-9.21l-0.55,-5.67l1.59,-1.03c1.85,1.9 7.42,4.39 9.16,4.85c8.37,2.24 14.77,-3.49 18.75,-7.48c3.49,-2.13 1.45,-2.66 -1.98,-2.63c1.04,-4.35 -3.47,-4.39 -5.67,-6.12c-0.25,-0.2 -0.47,-1.59 -0.39,-2.05l3.47,-3.14Z" style="fill:#2ab6a0;fill-rule:nonzero;"/><path d="M219.04,105.05c-0.43,1.03 -0.84,2.5 0.53,2.91l0.55,5.67c-0.82,6.52 -3.44,14.8 -2.8,21.42c7.74,4.68 20.41,0.54 28.07,-1.28c4.92,-1.17 0.48,-6.13 -1.3,-6.87c1.73,-2.21 -0.82,-2.74 -1.02,-4.6c1.88,-0.72 3.27,1.44 3.75,1.47c2.21,0.11 2.56,-0.15 3.79,-1.93l2.01,-0.04l-1.78,3.37c2.18,3.22 -1.7,2.47 -1.4,3.49c1.98,6.71 -0.86,3.27 4.88,6.6c-1.98,3.04 -8.17,0.5 -11.34,1.06c-2.25,0.41 -6.61,3.34 -9.8,3.48c-2.36,0.1 -5.64,0.08 -8.1,0c-6.96,-0.21 -9.14,-6.7 -12.52,3.07l-3.22,-0.32c0.05,11.14 -5.59,27 -16.19,15.21c-2.65,7.12 -4.15,15.91 -11.6,18.29c0.38,-2.26 -2.84,-5.24 -2.98,-6.15c-0.68,-4.54 1.91,-6.88 -0.05,-9.81c16.95,-6.99 32.22,-18.07 37.58,-37.27c0.91,-4.78 0.97,-5.88 1.01,-19.27l1.93,1.5Z" style="fill:#178575;fill-rule:nonzero;"/><path d="M178.52,160.09c1.96,2.93 -0.63,5.27 0.05,9.81c0.14,0.91 3.36,3.89 2.98,6.15c-5.51,1.39 -9.59,-3.98 -11.2,-8.27l-1.53,0.4l-15.53,1.46l-5.25,6.91c-3.12,-8.15 -3.28,-8.37 -5.22,-7.2c-0.36,-0.35 -0.85,-1.04 -1.15,-1.15c-3.66,-1.37 -9.03,-2.37 -12.68,-3.83c-2.48,-1 -4.31,-4.07 -7.99,-4.11l-0.56,-1.12c0.66,-0.94 1.43,-3.15 1.2,-5.43c6.3,2.93 12.72,7.31 20.26,8.59c12.14,2.07 26.55,1.42 36.62,-2.21Z" style="fill:#157668;fill-rule:nonzero;"/><path d="M121.64,153.71c0.23,2.28 -0.54,4.49 -1.2,5.43c-5.9,3.07 -10.93,5.84 -17.04,0.47c-0.77,-0.68 -2.14,-4.62 -2.94,-6.4c0.03,-3.17 17.58,-12.12 5.11,-11.28l-0.01,-1.11c4.38,-0.68 8.08,-3.11 8.08,-8.19c2.98,-0.74 1.87,5.43 1.53,6.61c-0.32,1.1 -3.57,4.79 -3.35,5.45c0.96,2.87 7.76,7.19 9.82,9.02Z" style="fill:#178575;fill-rule:nonzero;"/><path d="M105.57,141.93c12.47,-0.84 -5.08,8.11 -5.11,11.28c-2.54,0.32 -5.51,1.58 -9.39,1.09c-0.44,-2.91 1.97,-2.91 2.75,-4.69l0.25,-0.24l1.69,-1.56c2.98,-0.34 5.39,-4.26 7.39,-5.88c0.24,-0.19 2.1,-0.23 2.42,0Z" style="fill:#1e9e8b;fill-rule:nonzero;"/><path d="M91.11,145.2l2.92,2.16l0.04,2.01l-0.25,0.24c-0.78,1.78 -3.19,1.78 -2.75,4.69c-4.68,0.34 -4.39,7.6 -9.75,5.44c-0.4,-0.16 -3.17,-1.76 -3.73,-2.44c-1.83,-2.22 1.91,-6.02 2.68,-7.75c0.83,0.38 1.02,3.47 1.5,3.95c2.02,2.03 4.68,-0.9 5.84,-2.44c0.78,-1.03 1.81,-4.88 3.5,-5.86Z" style="fill:#173746;fill-rule:nonzero;"/><path d="M79.92,131.59l1.22,0.86c0.04,2.42 -2.01,7.74 1.43,8.85c5.76,-0.77 9.21,2.04 12.75,2.58l1.92,1.17l-2.16,2.17l-1.05,0.14l-2.92,-2.16c-0.3,-0.32 -2.82,-1.69 -3.35,-1.74c-6.32,-0.51 -2.96,2.45 -7.21,4.59c-3.61,-2.77 -2.93,-13.06 -0.63,-16.46Z" style="fill:#178575;fill-rule:nonzero;"/><path d="M80.27,149.55l0.28,-1.5c4.25,-2.14 0.89,-5.1 7.21,-4.59c0.53,0.05 3.05,1.42 3.35,1.74c-1.69,0.98 -2.72,4.83 -3.5,5.86c-1.16,1.54 -3.82,4.47 -5.84,2.44c-0.48,-0.48 -0.67,-3.57 -1.5,-3.95Z" style="fill:#176066;fill-rule:nonzero;"/><path d="M82.03,128.05c1.11,1.46 0.21,3.83 -0.89,4.4l-1.22,-0.86c0,-0.93 1.44,-2.8 2.11,-3.54Z" style="fill:#1e9e8b;fill-rule:nonzero;"/><path d="M95.08,147.22l0.68,0.59l-1.69,1.56l-0.04,-2.01l1.05,-0.14Z" style="fill:#145e55;fill-rule:nonzero;"/><path d="M109.46,129.28c1.78,0.4 3.93,1.92 4.18,3.35c0,5.08 -3.7,7.51 -8.08,8.19c-0.77,-0.45 -0.95,-0.97 -0.8,-2.34l0.28,-5.29l3.09,-2.79l1.33,-1.12Z" style="fill:#2ab6a0;fill-rule:nonzero;"/><path d="M103.55,137.71l1.21,0.77c-0.15,1.37 0.03,1.89 0.8,2.34l0.01,1.11c-0.32,-0.23 -2.18,-0.19 -2.42,0c-2,1.62 -4.41,5.54 -7.39,5.88l-0.68,-0.59l2.16,-2.17l0.94,-1.81l-0.2,-2.89l1.23,-0.05c2.1,0.66 3.24,-1.86 4.34,-2.59Z" style="fill:#157668;fill-rule:nonzero;"/><path d="M99.21,140.3l-1.23,0.05c-0.96,-2.11 -2.83,-4.51 -4.61,-6.05c4.04,-0.36 4.89,3.29 5.84,6Z" style="fill:#1e9e8b;fill-rule:nonzero;"/><path d="M98.18,143.24l-0.94,1.81l-1.92,-1.17l2.86,-0.64Z" style="fill:#1e9e8b;fill-rule:nonzero;"/><path d="M142.82,169.35c-9.22,12.44 -22.13,10.73 -21.82,-9.09c3.68,0.04 5.51,3.11 7.99,4.11c3.65,1.46 9.02,2.46 12.68,3.83c0.3,0.11 0.79,0.8 1.15,1.15Z" style="fill:#178575;fill-rule:nonzero;"/><path d="M168.82,168.18c-2.63,8.12 -13.51,18.89 -20.78,8.37l5.25,-6.91l15.53,-1.46Z" style="fill:#178575;fill-rule:nonzero;"/><path d="M244.09,126.9c1.78,0.74 6.22,5.7 1.3,6.87c-7.66,1.82 -20.33,5.96 -28.07,1.28c-0.64,-6.62 1.98,-14.9 2.8,-21.42c1.33,1.34 1.58,6.44 1.6,9.21c0.01,2.53 -3.02,4.42 1.1,5.95c4.92,1.83 7.88,2.51 15.55,1.45c0.99,-0.14 4.19,-2.66 5.72,-3.34Z" style="fill:#1e9e8b;fill-rule:nonzero;"/><path d="M252.34,115.35c4.68,0.99 10.73,1.8 11.73,6.4c0.75,3.44 -2.91,6.26 -5.5,6.57c0,-0.83 -1.74,-1.54 -7.73,-3.15l1.78,-3.37c1.38,-1.17 -0.89,-2.26 -1.05,-3.22c-0.09,-0.55 -0.03,-3.75 0.77,-3.23Z" style="fill:#2ab6a0;fill-rule:nonzero;"/><path d="M258.57,128.32l-0.09,3.97c-1.12,0.35 -2.66,3.6 -4.16,2.97c-5.74,-3.33 -2.9,0.11 -4.88,-6.6c-0.3,-1.02 3.58,-0.27 1.4,-3.49c5.99,1.61 7.73,2.32 7.73,3.15Z" style="fill:#1e9e8b;fill-rule:nonzero;"/><path d="M258.64,106.8c-0.54,4.16 -4.18,5.89 -6.3,8.55c-0.8,-0.52 -0.86,2.68 -0.77,3.23c0.16,0.96 2.43,2.05 1.05,3.22l-2.01,0.04c0.48,-3.69 -1.16,-5.43 -2.66,-7.26c3.09,-1.55 6.42,-5.37 9.07,-7.78l1.62,0Z" style="fill:#1e9e8b;fill-rule:nonzero;"/><path d="M221.16,106.93l-1.59,1.03c-1.37,-0.41 -0.96,-1.88 -0.53,-2.91l2.12,1.88Z" style="fill:#1e9e8b;fill-rule:nonzero;"/><path d="M263.68,90.55c-1.03,0.16 -2.72,1.45 -3.08,1.36c-2.45,-0.59 -5.14,-2.51 -7.81,-3.43l-8.29,1.88c0.14,-0.9 -0.05,-3.04 0,-3.37c0.05,-0.35 1.52,-1.71 1.54,-1.94c0.2,-2.88 0.46,-7.73 -2.2,-8.83c0.44,-0.31 5.28,-5.72 7.28,-3.42c4.41,5.1 8.5,12.81 12.56,17.75Z" style="fill:#1e9e8b;fill-rule:nonzero;"/><path d="M235.9,90.3c0.37,0.19 1.45,1.84 1.81,2.01c0.6,0.29 3.33,-0.26 3.32,1.19c-0.08,0.46 0.14,1.85 0.39,2.05c2.2,1.73 6.71,1.77 5.67,6.12l-0.62,0.56c-8.21,-0.34 -15.8,1.57 -21.89,3.54c-0.01,-1.17 2.54,-4.65 11.32,-15.47Z" style="fill:#1e9e8b;fill-rule:nonzero;"/><path d="M243.84,76.22c2.66,1.1 2.4,5.95 2.2,8.83c-0.02,0.23 -1.49,1.59 -1.54,1.94c-0.05,0.33 0.14,2.47 0,3.37l-3.47,3.14c0.01,-1.45 -2.72,-0.9 -3.32,-1.19c-0.36,-0.17 -1.44,-1.82 -1.81,-2.01c2,-3.95 4.95,-7.92 6.16,-12.7l1.78,-1.38Z" style="fill:#178575;fill-rule:nonzero;"/><path d="M247.09,101.67c3.43,-0.03 5.47,0.5 1.98,2.63c0.33,-3.21 -0.61,-1.61 -2.6,-2.07l0.62,-0.56Z" style="fill:#e5f7f5;fill-rule:nonzero;"/><path d="M300.82,66.24l-3.55,2.31c-10.93,7.3 -18.2,17.97 -18.37,36c-6.54,-6.56 -12.62,-16.02 -17.08,-24.52c1.93,-1.83 2.49,-5.34 3.17,-8.04l5.64,-7.68c8.75,1.28 20.59,1.43 30.19,1.93Z" style="fill:#2ab6a0;fill-rule:nonzero;"/><path d="M270.63,64.31l-5.64,7.68c-0.68,2.7 -1.24,6.21 -3.17,8.04c-1.19,-2.35 -3.88,-7.11 -4.54,-10.06c-0.99,-4.48 8.17,-8.93 13.35,-5.66Z" style="fill:#1e9e8b;fill-rule:nonzero;"/><path d="M291.49,25.05c-0.48,4.56 -0.61,12.52 0.34,15.5c0.81,5.34 2.86,9.47 4.73,13.41c1.97,2.63 4.46,6.98 7.22,9.32c-11.11,0.23 -21.89,-1.28 -29.96,-3.81c0.11,-1.99 2.17,-4.18 2.36,-4.81c0.42,-1.38 -0.18,-3.92 0.28,-4.96c0.44,-1 3.8,-3.44 4.03,-4.15c0.2,-0.6 -0.68,-5.71 -0.52,-6.5c0.39,-1.94 3.47,-2.84 2.56,-6l8.96,-8Z" style="fill:#2ab6a0;fill-rule:nonzero;"/><path d="M282.53,33.05c0.91,3.16 -2.17,4.06 -2.56,6c-0.16,0.79 0.72,5.9 0.52,6.5c-0.23,0.71 -3.59,3.15 -4.03,4.15c-0.46,1.04 0.14,3.58 -0.28,4.96c-0.19,0.63 -2.25,2.82 -2.36,4.81l-4.25,-1.13c-1.3,-10.1 3.99,-13.98 6.25,-20.6l6.71,-4.69Z" style="fill:#1e9e8b;fill-rule:nonzero;"/><path d="M275.82,37.74c-2.26,6.62 -7.55,10.5 -6.25,20.6c-1.51,-0.6 -4.94,-1.53 -5.5,-2.33c0.19,-3.21 0.18,-5.98 -2.03,-6.93l4.51,-6.03l9.27,-5.31Z" style="fill:#178575;fill-rule:nonzero;"/><path d="M264.07,56.01c-3.13,-0.64 -3.14,-1.24 -3.14,-4.85c0,-0.12 1.07,-1.22 1.11,-2.08c2.21,0.95 2.22,3.72 2.03,6.93Z" style="fill:#1e9e8b;fill-rule:nonzero;"/><path d="M215.98,94.29l-1.38,-5c9.62,-3.34 15.11,-12.09 21.4,-18.74c1.8,0.36 -0.23,6.74 -0.95,7.9c-4.03,6.51 -9.65,14.23 -19.07,15.84Z" style="fill:#178575;fill-rule:nonzero;"/><path d="M125.79,119.05c1.43,5.56 -3.91,8.04 -8.22,9.24c7.25,18.57 34.85,25.65 57.75,18.64c15,-4.6 24.81,-13.94 33.97,-24.11l6.81,0c-5.36,19.2 -20.63,30.28 -37.58,37.27c-10.07,3.63 -24.48,4.28 -36.62,2.21c-7.54,-1.28 -13.96,-5.66 -20.26,-8.59c-2.06,-1.83 -8.86,-6.15 -9.82,-9.02c-0.22,-0.66 3.03,-4.35 3.35,-5.45c0.34,-1.18 1.45,-7.35 -1.53,-6.61c-0.25,-1.43 -2.4,-2.95 -4.18,-3.35l2.63,-3.58c0.21,-0.28 1.44,-2.27 2.09,-2.4c0.97,-0.2 3.43,0.85 4.21,0.59c3.21,-1.08 5.2,-2.61 7.4,-4.84Z" style="fill:#1e9e8b;fill-rule:nonzero;"/><path d="M128.01,111.55c0.43,3.15 -1.79,6.34 -2.22,7.5c-2.2,2.23 -4.19,3.76 -7.4,4.84c-0.78,0.26 -3.24,-0.79 -4.21,-0.59c-0.65,0.13 -1.88,2.12 -2.09,2.4l-4.01,-0.46l-0.49,-0.02l-0.54,-2.34c3.82,-3.83 -1.87,-6.88 -3.95,-8.16l-1.21,-3.9c6.47,1.09 4.29,-3.9 5.29,-4.99c1.86,-2.05 4.66,-4.53 7.86,-5.53c7.35,-2.29 5.07,11.05 7.6,14.1c0.95,0.29 4.39,-2.35 5.37,-2.85Z" style="fill:#084b54;fill-rule:nonzero;"/><path d="M107.05,100.22c-2.17,2.78 -5.14,5.59 -5.16,10.6l1.21,3.9l-1.07,1.83l-1.12,2.26l-2.84,-1.14l0,-8.37c-0.26,-2.55 0.72,-6.31 -1.18,-6.96c1.93,0.44 1.15,-4.96 1.25,-5.78c0.31,-2.7 0.9,-6.37 1.46,-9.01c1.83,1.1 3.26,3.45 6.22,3c0.45,2.24 0.03,8 1.23,9.67Z" style="fill:#1e9e8b;fill-rule:nonzero;"/><path d="M128.01,111.55c-0.98,0.5 -4.42,3.14 -5.37,2.85c-2.53,-3.05 -0.25,-16.39 -7.6,-14.1c-3.2,1 -6,3.48 -7.86,5.53c-1,1.09 1.18,6.08 -5.29,4.99c0.02,-5.01 2.99,-7.82 5.16,-10.6c9.58,-6.17 22.53,-0.76 20.96,11.33Z" style="fill:#176066;fill-rule:nonzero;"/><path d="M98.07,109.3l0,3.67c-5.33,-0.92 -10.39,-2.68 -14.73,-4.65c-1.25,-0.57 -8.62,-5.32 -3.62,-7.52l1.83,0l14.93,8.5l1.59,0Z" style="fill:#178575;fill-rule:nonzero;"/><path d="M107.05,122.88l-1.57,-1.33l-2.75,-2.15l-0.7,-2.85l1.07,-1.83c2.08,1.28 7.77,4.33 3.95,8.16Z" style="fill:#176066;fill-rule:nonzero;"/><path d="M102.03,116.55l0.7,2.85l-1.82,-0.59l1.12,-2.26Z" style="fill:#145e55;fill-rule:nonzero;"/><path d="M107.59,125.22l0.49,0.02c0.14,1.86 0.02,3.97 -1.08,4.53c-4.15,1.83 -3.49,-0.75 -4.88,-1.87l1.73,-1.59c1.77,0.29 3.05,-0.29 3.74,-1.09Z" style="fill:#178575;fill-rule:nonzero;"/><path d="M102.12,127.9c1.39,1.12 0.73,3.7 4.88,1.87l1.13,0.63l-3.09,2.79l-1.55,0.14c-0.54,-0.3 -0.96,-2.64 -1.4,-3.31c-0.31,-0.48 -4.22,-3.07 -2.42,-3.97c0.37,-0.19 1.98,1.61 2.45,1.85Z" style="fill:#157668;fill-rule:nonzero;"/><path d="M105.04,133.19l-0.28,5.29l-1.21,-0.77l-0.06,-4.38l1.55,-0.14Z" style="fill:#178575;fill-rule:nonzero;"/><path d="M112.09,125.7l-2.63,3.58l-1.33,1.12l-1.13,-0.63c1.1,-0.56 1.22,-2.67 1.08,-4.53l4.01,0.46Z" style="fill:#134c46;fill-rule:nonzero;"/><path d="M107.05,122.88l0.54,2.34c-0.69,0.8 -1.97,1.38 -3.74,1.09l1.63,-4.76l1.57,1.33Z" style="fill:#1e9e8b;fill-rule:nonzero;"/><path d="M146.33,26.89l1.86,-2.08c0.71,0.82 2.46,2.67 3.1,3.98c-2.1,0.2 -3.64,-1.46 -4.96,-1.9Z" style="fill:#e5f7f5;fill-rule:nonzero;"/><path d="M288.13,123.3c2.35,-1.14 3.36,3.7 4,4.4c2.06,2.22 5.42,3.65 6.94,6.53c1.07,2.04 -1.19,7.3 -1.99,7.57c-3.03,1.02 -0.1,-4.46 -1.26,-6.15l-5.5,-3.28c-1.88,0.3 -3.76,19.19 -4.52,21.76c-1.94,6.5 -16.49,6.6 -14.23,-2.88c1.13,-4.74 6.82,-5.06 12,-4.1l4.56,-23.85Z" style="fill:#1e9e8b;fill-rule:nonzero;"/><path d="M19.7,136.77c3.68,1.82 8.75,2.24 10.92,6.16c0.39,0.72 -0.1,7.26 -1.51,5.94c-1.27,-1.18 0.13,-8.46 -9.15,-7.07c0.33,6.5 8.08,17.55 3.26,22.75c-8.75,9.44 -17.11,-8.53 -2.65,-8.75l-5.5,-20.33c2.51,-2.34 4.05,1.02 4.63,1.3Z" style="fill:#1e9e8b;fill-rule:nonzero;"/></g></svg>
